<svg width="188" height="139" viewBox="0 0 188 139" fill="none" xmlns="http://www.w3.org/2000/svg">
<g opacity="0.5" filter="url(#filter0_d_71_129709)">
<circle cx="141.5" cy="2.5" r="2.5" fill="#52C4DA"/>
<circle cx="107" cy="65" r="3" fill="#52C4DA"/>
<circle cx="107" cy="87" r="3" fill="#52C4DA"/>
<circle cx="91" cy="108" r="3" fill="#52C4DA"/>
<circle cx="73" cy="108" r="3" fill="#52C4DA"/>
<circle cx="56" cy="128" r="3" fill="#52C4DA"/>
<circle cx="39" cy="86" r="3" fill="#52C4DA"/>
<circle cx="160.5" cy="64.5" r="3.5" fill="#52C4DA"/>
<circle cx="142" cy="65" r="3" fill="#52C4DA"/>
<circle cx="160" cy="87" r="3" fill="#52C4DA"/>
<circle cx="91" cy="65" r="2" fill="#52C4DA"/>
<circle cx="39" cy="65" r="1" fill="#52C4DA"/>
<circle cx="56" cy="65" r="1" fill="#52C4DA"/>
<circle cx="73" cy="86" r="1" fill="#52C4DA"/>
<circle cx="125" cy="86" r="1" fill="#52C4DA"/>
<circle cx="5" cy="86" r="1" fill="#52C4DA"/>
<circle cx="91" cy="86" r="1" fill="#52C4DA"/>
<circle cx="143.5" cy="86.5" r="1.5" fill="#52C4DA"/>
<circle cx="160" cy="108" r="1" fill="#52C4DA"/>
<circle cx="73" cy="65" r="1" fill="#52C4DA"/>
<circle cx="125" cy="65" r="1" fill="#52C4DA"/>
<circle cx="177" cy="65" r="2" fill="#52C4DA"/>
<circle cx="177" cy="87" r="2" fill="#52C4DA"/>
<circle cx="177" cy="108" r="2" fill="#52C4DA"/>
<circle cx="141.5" cy="23.5" r="1.5" fill="#52C4DA"/>
<circle cx="56" cy="45" r="3" fill="#52C4DA"/>
<circle cx="73" cy="45" r="2" fill="#52C4DA"/>
<circle cx="56" cy="86" r="2" fill="#52C4DA"/>
<circle cx="56" cy="108" r="2" fill="#52C4DA"/>
<circle cx="39" cy="108.5" r="1.5" fill="#52C4DA"/>
<circle cx="22" cy="86" r="2" fill="#52C4DA"/>
<circle cx="125" cy="45" r="2" fill="#52C4DA"/>
<circle cx="91.5" cy="45.5" r="2.5" fill="#52C4DA"/>
<circle cx="107" cy="45" r="1" fill="#52C4DA"/>
<circle cx="141.5" cy="45.5" r="1.5" fill="#52C4DA"/>
<circle cx="160.5" cy="2.5" r="1.5" fill="#52C4DA"/>
</g>
<defs>
<filter id="filter0_d_71_129709" x="0" y="0" width="201" height="139" filterUnits="userSpaceOnUse" color-interpolation-filters="sRGB">
<feFlood flood-opacity="0" result="BackgroundImageFix"/>
<feColorMatrix in="SourceAlpha" type="matrix" values="0 0 0 0 0 0 0 0 0 0 0 0 0 0 0 0 0 0 127 0" result="hardAlpha"/>
<feOffset dy="4"/>
<feGaussianBlur stdDeviation="2"/>
<feComposite in2="hardAlpha" operator="out"/>
<feColorMatrix type="matrix" values="0 0 0 0 0 0 0 0 0 0 0 0 0 0 0 0 0 0 0.25 0"/>
<feBlend mode="normal" in2="BackgroundImageFix" result="effect1_dropShadow_71_129709"/>
<feBlend mode="normal" in="SourceGraphic" in2="effect1_dropShadow_71_129709" result="shape"/>
</filter>
</defs>
</svg>
