<?xml version="1.0" encoding="utf-8"?>
<!-- Generator: Adobe Illustrator 23.0.1, SVG Export Plug-In . SVG Version: 6.00 Build 0)  -->
<svg version="1.1" id="Layer_1" xmlns="http://www.w3.org/2000/svg" xmlns:xlink="http://www.w3.org/1999/xlink" x="0px" y="0px"
	 viewBox="0 0 20 20" enable-background="new 0 0 20 20" xml:space="preserve">
<path fill="none" d="M-18.1-7.8h24v24h-24V-7.8z"/>
<path fill="#6B7280" d="M10,0C4.5,0,0,4.5,0,10s4.5,10,10,10s10-4.5,10-10S15.5,0,10,0z M5.1,16.3c0.4-0.9,3-1.8,4.9-1.8
	s4.5,0.9,4.9,1.8C13.6,17.4,11.9,18,10,18S6.4,17.4,5.1,16.3z M16.4,14.8c-1.4-1.7-4.9-2.3-6.4-2.3s-4.9,0.6-6.4,2.3
	c-1-1.3-1.6-3-1.6-4.8c0-4.4,3.6-8,8-8s8,3.6,8,8C18,11.8,17.4,13.5,16.4,14.8z M10,4C8.1,4,6.5,5.6,6.5,7.5S8.1,11,10,11
	s3.5-1.6,3.5-3.5S11.9,4,10,4z M10,9C9.2,9,8.5,8.3,8.5,7.5S9.2,6,10,6s1.5,0.7,1.5,1.5S10.8,9,10,9z"/>
<g>
	<path fill="#EF4444" d="M17,14.6v-1.4h-1.2v1.4h-1.4v1.2h1.4v1.4H17v-1.4h1.4v-1.2H17z M17,14.6v-1.4h-1.2v1.4h-1.4v1.2h1.4v1.4H17
		v-1.4h1.4v-1.2H17z M19.2,11.6h-5.7c-0.4,0-0.8,0.4-0.8,0.8l0,5.7c0,0.5,0.4,0.8,0.8,0.8h5.7c0.5,0,0.8-0.4,0.8-0.8v-5.7
		C20,12,19.6,11.6,19.2,11.6z M19.2,18.1h-5.7v-5.7h5.7V18.1z M15.7,17.3H17v-1.4h1.4v-1.2H17v-1.4h-1.2v1.4h-1.4v1.2h1.4V17.3z"/>
	<path fill="#FFFFFF" d="M13.5,12.4v5.7h5.7v-5.7H13.5z M18.4,15.8H17v1.4h-1.2v-1.4h-1.4v-1.2h1.4v-1.4H17v1.4h1.4V15.8z"/>
</g>
</svg>
