<svg width="20" height="19" viewBox="0 0 20 19" fill="none" xmlns="http://www.w3.org/2000/svg">
<path d="M16.5811 8.326C16.5811 9.77499 16.1514 11.1914 15.3464 12.3962C14.5413 13.601 13.3971 14.54 12.0584 15.0944C10.7197 15.6489 9.24661 15.7939 7.82548 15.5112C6.40435 15.2284 5.09898 14.5306 4.07446 13.5059C3.04994 12.4813 2.35229 11.1758 2.06973 9.75462C1.78716 8.33345 1.93239 6.8604 2.48703 5.52177C3.04167 4.18313 3.98081 3.03904 5.1857 2.23417C6.39059 1.4293 7.80709 0.999802 9.25608 1C10.2181 1 11.1708 1.18949 12.0596 1.55766C12.9485 1.92582 13.7561 2.46545 14.4363 3.14574C15.1166 3.82602 15.6563 4.63363 16.0244 5.52246C16.3926 6.41129 16.5821 7.36394 16.5821 8.326H16.5811Z" stroke="white" stroke-width="2" stroke-linecap="round" stroke-linejoin="round"/>
<path d="M18.4121 17.482L14.4291 13.499" stroke="white" stroke-width="2" stroke-linecap="round" stroke-linejoin="round"/>
</svg>
