<?xml version="1.0" encoding="utf-8"?>
<!-- Generator: Adobe Illustrator 23.0.1, SVG Export Plug-In . SVG Version: 6.00 Build 0)  -->
<svg version="1.1" id="Layer_1" xmlns="http://www.w3.org/2000/svg" xmlns:xlink="http://www.w3.org/1999/xlink" x="0px" y="0px"
	 viewBox="0 0 163 39" enable-background="new 0 0 163 39" xml:space="preserve">
<g>
	<path fill="#FFFFFF" d="M27.3,0c4.2,0,8.4,3.8,8.9,8.7c0.4,3.5-0.7,6.4-3.1,8.9c-5.2,5.4-10.4,10.9-15.6,16.4
		c-0.5,0.6-0.8,1.1-0.5,1.9c0.3,0.6,0.8,0.8,1.4,0.7c0.7-0.1,1.4-1.1,1.1-1.7l-0.2-0.5l1.7-1.6c0.3,0.4,0.6,0.8,0.8,1.3
		c0.3,0.8,0.3,1.7-0.1,2.5c-0.3,0.8-0.9,1.5-1.7,1.9c-0.8,0.4-1.6,0.6-2.5,0.5c-0.9-0.1-1.7-0.6-2.2-1.2c-1.2-1.4-1.2-3.4-0.1-4.8
		c0.4-0.5,1.1-1.4,1.1-1.4s-0.7-0.9-1.1-1.3C11.4,26.2,7.7,22.3,4,18.5c-1.9-1.9-3.4-4-3.8-6.8C-0.6,7.5,1.6,3,5.5,1
		C9-0.9,13.5-0.1,16.5,2.9c0.3,0.3,0.6,0.6,0.6,0.6l-1.8,1.6c0,0-0.3-0.3-0.6-0.6c-1.9-2-4.3-2.7-7-1.8c-2.9,0.9-4.5,3-5.1,5.9
		c-0.5,2.7,0.2,5,2.1,7c4.3,4.6,8.7,9.1,13,13.6c0.2,0.2,0.5,0.5,0.5,0.5s0.2-0.2,0.5-0.4c4.5-4.7,9.1-9.4,13.5-14.2
		c2.2-2.4,2.4-5.4,1-8.4c-1.3-2.8-3.6-4.3-6.7-4.3c-0.9,0-1.8,0.2-2.6,0.5c-0.8,0.4-1.6,0.9-2.2,1.6c-0.6,0.6-1.8,2.1-1.8,2.1
		s1.2,1,1.7,1.6c0.9,1,1.8,2,2.2,3.4c0.3,1.3,0.2,2.6-0.3,3.8c-0.5,1.2-1.5,2.2-2.6,2.8c-2.4,1.2-5.4,0.7-7.1-1.3
		c-1.8-2.1-2-5.2-0.2-7.3c2.2-2.5,4.5-5,6.9-7.2C22.2,0.7,24.3,0,27.3,0z M21.5,13c0-0.6-0.1-1.2-0.5-1.7c-0.8-1.1-1.7-1.9-2.6-2.9
		c-0.1-0.1-0.3-0.3-0.3-0.3S18,8.3,17.9,8.4c-0.8,0.8-1.6,1.6-2.3,2.5c-1,1.2-1,2.8-0.1,4.1c0.4,0.6,1,1,1.7,1.3s1.4,0.2,2.1,0
		s1.3-0.7,1.7-1.3C21.4,14.4,21.6,13.7,21.5,13L21.5,13z"/>
</g>
<g>
	<path fill="#FFFFFF" d="M116.1,22c-1.8,1.8-3.8,2.3-6,2c-3.4-0.5-5.3-2.6-5.4-6c-0.1-1.9,0-6.3,0-6.3l3.1,0c0,0,0,1.1,0,2.3
		c0,1.4-0.1,2.8,0.1,4.2c0.4,2.1,1.7,3.3,3.9,3.2c2.3,0,3.8-1.4,4.1-3.5c0.2-1.7,0.2-6.2,0.2-6.2l3.1,0c0,0,0,8.1-0.1,11
		c0,2-0.3,4-1.7,5.6c-1.4,1.7-3.4,2.2-5.5,2.3c-2.1,0.1-4.2-0.4-6-1.6c-0.3-0.2-0.6-0.4-0.8-0.7l1.2-2.2l1.2,0.7
		c1.6,0.9,3.4,1.2,5.2,0.9c1.6-0.2,2.8-1.3,3.1-3C116,23.9,116,23.1,116.1,22z"/>
	<path fill="#FFFFFF" d="M58.8,19.6c1.8,0.8,2.8,2.2,2.7,4.1c0,2.2-1.6,3.9-4.2,4.2c-3.3,0.4-10.3,0.2-10.3,0.2s0-5.4,0-7.7
		c0-2.6,0-8.6,0-8.6s6.6-0.2,9.6,0.2c0.8,0.1,1.5,0.4,2.2,0.8c0.5,0.3,1,0.8,1.3,1.3c0.3,0.5,0.5,1.1,0.6,1.8c0.1,0.6,0,1.3-0.3,1.9
		c-0.2,0.6-0.6,1.1-1.1,1.5C59.2,19.2,59,19.4,58.8,19.6z M53.3,25.6c0.9,0,1.7,0,2.6,0c0.9-0.1,1.7-0.3,2.2-1.1
		c1-1.4,0-3.2-1.9-3.5c-1.9-0.3-6.1,0-6.1,0l0,4.5L53.3,25.6z M52.8,18.5c0.8,0,1.6,0.1,2.4,0c1.5-0.1,2.3-1,2.3-2.3
		c0-1.1-0.9-2-2.3-2c-1.5-0.1-5.1,0-5.1,0v4.3L52.8,18.5z"/>
	<path fill="#FFFFFF" d="M137.4,11.6l3.1,0v16.3h-2.3c0,0-5.9-6.8-8.3-9.8c-0.2-0.3-0.8-1.1-0.8-1.1l0,11l-3,0l0-16.4l2.4,0
		c0,0,0.8,0.9,1.2,1.5c2.4,3.1,7.7,9.5,7.7,9.5L137.4,11.6z"/>
	<path fill="#FFFFFF" d="M81.4,28c-0.2,0-3.2,0-3.2,0s-1.2-1.7-1.7-2.3c-0.8-1.2-1.2-2.4-5.4-2.4c-0.2,0-0.3,0-0.5,0v4.7l-3.1,0
		l0-16.4c0,0,5.9-0.1,8.4,0.2c5.3,0.8,6.1,5.7,4.4,8.7c-0.5,0.8-2.6,2.2-2.6,2.2s2.1,3.2,3,4.4C81,27.4,81.2,27.7,81.4,28z
		 M70.5,17.6c0,0.9,0,3.2,0,3.2s3.2,0.1,4.5-0.1c1.8-0.1,2.8-1.3,2.9-2.9c0.1-1.9-0.7-3-2.6-3.3c-1.5-0.3-4.9-0.1-4.9-0.1
		S70.5,16.7,70.5,17.6L70.5,17.6z"/>
	<path fill="#FFFFFF" d="M87.2,19.9c0-2.4,0-8.2,0-8.2h11.9l0,2.5l-8.9,0.1l0,4.3l8,0V21l-8,0l0,4.3h9.2v2.7l-12.3,0.1
		C87.1,28.1,87.2,22.3,87.2,19.9z"/>
	<path fill="#FFFFFF" d="M145.4,28l7.2-16.3l3,0l7.4,16.4h-3l-1.8-3.8l-8,0l-1.8,3.8H145.4z M154.1,14.8c-1,2.3-2.9,6.9-2.9,6.9l6,0
		C157.1,21.7,155.1,17.2,154.1,14.8z"/>
</g>
</svg>
