<svg width="25" height="23" viewBox="0 0 25 23" fill="none" xmlns="http://www.w3.org/2000/svg">
<path d="M24.7916 20.7695L19.3121 14.7635C19.3353 14.7403 19.3624 14.717 19.3858 14.6898C19.5679 14.4651 19.7152 14.066 19.4014 13.442C19.382 13.4071 19.3626 13.3761 19.3354 13.3489L11.5505 4.81641C11.5505 4.81641 11.5505 4.81261 11.5467 4.81261L8.97755 1.99546C8.96596 1.97989 8.95437 1.96449 8.9388 1.9529L7.99321 0.918255C7.226 0.0773574 5.9163 0.0192103 5.07536 0.786434C4.23446 1.55763 4.17631 2.86335 4.94353 3.70429L14.941 14.6628C14.9954 14.7247 15.0689 14.7674 15.1504 14.7868C15.4835 14.8721 16.1463 15.0271 16.8554 15.1124L17.5567 15.8796L17.1847 16.7515C17.1228 16.8949 17.146 17.0615 17.2429 17.1816C17.3204 17.2784 19.13 19.5609 20.366 20.6032C21.2882 21.3782 22.8498 21.506 23.7722 21.506C24.1947 21.506 24.4813 21.4788 24.5163 21.475C24.6751 21.4595 24.8147 21.355 24.8728 21.2038C24.9307 21.0528 24.8998 20.8862 24.7913 20.7699L24.7916 20.7695ZM5.57156 3.13451C5.11816 2.64237 5.1569 1.86737 5.64906 1.41393C6.14501 0.960529 6.91621 0.995461 7.36965 1.49143L8.16024 2.35951L7.16434 4.88207L5.57156 3.13451ZM7.80347 5.57957L8.79937 3.05701L10.764 5.20762L9.76812 7.73018L7.80347 5.57957ZM17.088 14.2866C17.0802 14.2866 17.0764 14.2828 17.0686 14.2828C16.5804 14.2285 16.0339 14.1316 15.4837 13.996L10.4036 8.43146L11.3995 5.9089L18.669 13.8799C18.7465 14.0427 18.7465 14.1396 18.7272 14.1627C18.6962 14.2015 18.6419 14.2324 18.5722 14.2596C18.5412 14.2674 18.5102 14.2752 18.4791 14.2868C18.1847 14.3525 17.6847 14.3525 17.0881 14.2866L17.088 14.2866ZM20.9086 19.9556C19.9399 19.1419 18.5293 17.433 18.0605 16.8556L18.4402 15.9682C18.5062 15.817 18.4752 15.6388 18.3627 15.5148L18.0527 15.1738C18.2039 15.166 18.3512 15.1506 18.4906 15.1273L23.5321 20.6568C22.6758 20.6336 21.5327 20.4786 20.9089 19.9555L20.9086 19.9556Z" fill="#014494"/>
<path d="M17.619 21.6995H0.522544C0.290044 21.6995 0.100098 21.8895 0.100098 22.122C0.100098 22.3545 0.290044 22.5444 0.522544 22.5444H17.619C17.8515 22.5444 18.0415 22.3545 18.0415 22.122C18.0451 21.8895 17.8514 21.6995 17.6189 21.6995H17.619Z" fill="#014494"/>
</svg>
