<svg width="56" height="60" viewBox="0 0 56 60" fill="none" xmlns="http://www.w3.org/2000/svg">
<path d="M19.1987 44.7502C19.6833 44.7203 20.0517 44.3033 20.0217 43.8187C19.887 41.6332 20.0505 39.4842 20.5077 37.4313C21.3906 33.4698 23.1644 30.7171 24.7314 28.2852C26.421 25.6632 27.8759 23.4 28.2372 19.9865C28.8789 13.9235 25.5916 7.28433 18.4665 0.253403C18.1213 -0.0874964 17.5648 -0.0838636 17.2236 0.261607C16.8827 0.607077 16.8865 1.1636 17.232 1.5045C23.9571 8.14086 27.0718 14.2969 26.4892 19.8012C26.2689 21.8812 25.5817 23.4806 24.6373 25.111C21.8009 24.7956 19.2594 25.1846 17.0766 26.2701C16.6474 26.4829 16.245 26.715 15.86 26.9719C13.1242 24.2686 9.84291 22.3764 6.33957 21.4865C5.21457 21.2006 4.04702 21.0133 2.86764 20.9295C1.44346 20.8283 0.114781 21.9477 0.00731969 23.3704C-0.100962 24.8037 1.00518 26.091 2.45983 26.1884C3.33323 26.2469 4.20195 26.3847 5.04195 26.5981C7.55563 27.2368 9.93689 28.5949 11.9655 30.541C11.5851 30.859 11.2118 31.1065 10.7856 31.3276C9.13404 32.1878 7.0727 32.4009 4.6598 31.9608C3.19905 31.6945 1.78283 32.7243 1.57576 34.1884C1.37654 35.5971 2.34229 36.9022 3.77445 37.1593C5.4623 37.462 7.07985 37.5338 8.59849 37.3738C8.58501 39.6847 8.09739 41.9129 7.17512 43.8576C6.80317 44.6403 6.35516 45.3982 5.84387 46.1093C5.09797 47.1443 5.19933 48.5618 6.08152 49.4762C7.20712 50.643 9.18607 50.4981 10.1495 49.1543C10.8362 48.1964 11.4383 47.1749 11.939 46.1184C13.4307 42.9738 14.076 39.3718 13.813 35.6749C15.2927 34.7939 16.2554 33.7756 17.0406 32.9452C17.8089 32.1339 18.4156 31.493 19.4227 30.9921C20.0101 30.7001 20.6657 30.4994 21.3797 30.3861C20.3444 32.2362 19.3887 34.3719 18.7922 37.0486C18.299 39.2624 18.1224 41.5765 18.2674 43.9266C18.2961 44.3926 18.6831 44.7513 19.1439 44.7513C19.1619 44.7518 19.1802 44.7513 19.1987 44.7502ZM18.64 29.4184C17.3534 30.0584 16.5813 30.8738 15.7631 31.7378C14.9202 32.6295 14.0484 33.5516 12.5959 34.3462C12.2114 34.5587 11.9886 34.9776 12.0283 35.4119C12.3448 38.9427 11.7647 42.3845 10.3506 45.3657C9.8947 46.3276 9.34638 47.2579 8.72048 48.1308C8.394 48.5862 7.72696 48.6505 7.34997 48.2597C7.05512 47.9541 7.02149 47.482 7.27051 47.1365C7.84368 46.3392 8.34571 45.49 8.76302 44.6118C9.90162 42.2107 10.4482 39.4361 10.3438 36.59C10.3329 36.2737 10.1862 35.9772 9.94123 35.7766C9.69513 35.5749 9.37345 35.4889 9.06314 35.5402C7.53266 35.7845 5.85781 35.7473 4.08476 35.4294C3.59573 35.3415 3.25097 34.8953 3.31624 34.4336C3.3855 33.9446 3.85847 33.6018 4.34374 33.6903C7.15063 34.2021 9.59131 33.9318 11.5963 32.8874C12.5657 32.3846 13.2204 31.805 13.6834 31.3553C14.1166 30.9345 14.1217 30.217 13.7006 29.7875C13.6922 29.7788 13.6835 29.7704 13.6748 29.7622C11.326 27.3439 8.49138 25.6609 5.47473 24.8945C4.5316 24.655 3.55683 24.5003 2.57807 24.4347C2.15292 24.4057 1.81014 24.079 1.76291 23.6565C1.70291 23.1203 2.21561 22.6456 2.74448 22.6831C3.81862 22.7594 4.88246 22.93 5.90668 23.1903C9.24806 24.0391 12.3767 25.8945 14.9552 28.5564C14.9612 28.5632 14.9672 28.5698 14.9732 28.5763C15.3561 28.9877 15.9852 29.0478 16.4424 28.7123C16.8863 28.3807 17.3492 28.097 17.8583 27.8446C19.5208 27.0177 21.4489 26.6651 23.6035 26.7884C23.4879 26.9688 23.3711 27.1507 23.2517 27.3363C23.0024 27.7232 22.748 28.1181 22.4925 28.5243C21.0573 28.561 19.764 28.86 18.64 29.4184ZM54.4793 29.8904C52.9993 28.9285 50.5656 27.768 47.3766 27.7013C45.6672 27.6654 43.9309 27.9692 42.3015 28.584C41.8873 27.4029 41.5247 26.2063 41.2206 25.0156C40.6093 22.6221 40.2055 20.1572 40.0179 17.6783C41.1739 18.5101 42.3566 19.419 44.4246 20.0482C44.8894 20.1897 45.3801 19.9275 45.5211 19.4629C45.6624 18.9984 45.4003 18.5075 44.9359 18.3663C43.2498 17.8538 42.1778 17.0747 41.139 16.3198C40.8909 16.1395 40.6507 15.9646 40.4024 15.7951C39.9579 15.4918 39.3902 15.4679 38.9216 15.7331C38.454 15.9974 38.1824 16.4946 38.213 17.0316C38.378 19.8751 38.8168 22.7077 39.5174 25.4505C39.9108 26.9916 40.3984 28.5416 40.9662 30.0577C41.1416 30.526 41.6995 30.7574 42.1555 30.5484C43.7904 29.7987 45.582 29.4216 47.3396 29.4586C50.1146 29.5167 52.2329 30.5268 53.5208 31.3639C53.946 31.6407 54.0808 32.1959 53.8213 32.6012C53.562 33.0063 52.9997 33.1249 52.5989 32.8619C51.4963 32.1384 49.6824 31.2656 47.3029 31.2168C45.9516 31.19 44.6125 31.4381 43.3283 31.9565C42.9729 32.101 42.6898 32.3896 42.5516 32.7483C42.4133 33.1076 42.4298 33.5125 42.598 33.8612C43.386 35.4836 44.2797 37.0718 45.2538 38.581C45.5175 38.9901 45.4314 39.5417 45.0618 39.8107C44.6592 40.1036 44.0741 39.996 43.8045 39.5789C42.2172 37.1234 40.8589 34.5139 39.7671 31.8215C39.5858 31.3762 39.1955 31.0587 38.7228 30.9722C38.249 30.8856 37.771 31.0448 37.4438 31.3969C35.8958 33.0596 34.728 34.9194 33.9727 36.9247C33.6297 37.8364 33.3676 38.7876 33.1936 39.7509C33.1073 40.2283 32.6451 40.5437 32.1703 40.4605C31.7042 40.3788 31.3872 39.8488 31.4715 39.3916C31.6652 38.3402 31.9532 37.3016 32.3273 36.3056C33.4415 33.3489 35.4003 30.6349 37.9917 28.457C38.259 28.2324 38.368 27.8707 38.2693 27.5358C38.1016 26.9668 37.9483 26.4113 37.8138 25.8853C36.9626 22.5494 36.4855 19.1065 36.3957 15.6514C36.3854 15.27 36.2177 14.9044 35.9356 14.6487C35.6539 14.3931 35.2743 14.2622 34.8931 14.2888C34.1001 14.3454 33.2684 14.5003 32.4111 14.7477C32.3009 14.1786 32.1676 13.6078 32.0076 13.0349C34.3479 12.3705 36.582 12.3034 38.5355 12.9295C39.1373 13.1224 39.8008 12.8787 40.1368 12.3528C41.0174 10.9748 42.182 9.7768 43.5052 8.8884C45.8094 7.33976 48.1224 6.94894 49.6572 6.89386C50.1592 6.87581 50.5939 7.25023 50.6141 7.73293C50.6343 8.21293 50.245 8.63422 49.7644 8.64922C48.4473 8.69035 46.4622 9.01836 44.4849 10.3476C43.4514 11.0427 42.561 11.9245 41.8386 12.9687C41.4144 13.5815 41.5547 14.4334 42.1487 14.8808C43.1061 15.6021 44.0508 16.2607 45.4464 16.685C47.611 17.3432 50.0595 17.1596 52.7245 16.1398C53.1842 15.9639 53.7136 16.2142 53.8718 16.6822C54.0208 17.1231 53.7636 17.6255 53.2983 17.8018C51.7026 18.4066 50.1477 18.7481 48.6771 18.8168C48.1922 18.8394 47.8176 19.2509 47.8401 19.7357C47.8621 20.2067 48.2508 20.5736 48.7173 20.5736C48.7312 20.5736 48.745 20.5733 48.7589 20.5726C50.4149 20.4953 52.1518 20.1161 53.9214 19.4454C55.2833 18.9288 55.9928 17.4677 55.5372 16.1204C55.062 14.7151 53.4716 13.9714 52.0955 14.4981C49.8046 15.3748 47.7394 15.5448 45.9571 15.0029C44.9599 14.7002 44.2791 14.2503 43.4905 13.6826C44.0475 12.9439 44.7107 12.3137 45.4656 11.806C47.0956 10.7102 48.7328 10.4397 49.8205 10.4059C51.2568 10.3611 52.4308 9.09887 52.3702 7.65769C52.3095 6.21464 51.0652 5.08378 49.5938 5.13698C47.8306 5.20038 45.1729 5.64944 42.5249 7.42906C41.0775 8.4009 39.7965 9.69231 38.8057 11.1764C36.5477 10.5456 34.0832 10.6097 31.4695 11.3608C30.1587 7.73269 27.8664 4.036 24.6004 0.300396C24.2807 -0.0651135 23.7256 -0.102145 23.3602 0.217192C22.9948 0.536764 22.9574 1.092 23.277 1.45739C28.9826 7.98324 31.5564 14.3085 30.9268 20.257C30.4999 24.2854 28.7304 27.0336 27.016 29.6963C25.4295 32.1596 23.9311 34.4862 23.1511 37.991C21.7204 44.4121 23.5663 51.6809 28.6374 59.5954C28.9017 60.0078 29.4478 60.1199 29.8515 59.8613C30.2602 59.5994 30.3793 59.0558 30.1174 58.6471C25.3083 51.1416 23.5418 44.3204 24.8669 38.3731C25.5788 35.1745 26.9947 32.9758 28.4971 30.6429C30.3196 27.8126 32.204 24.886 32.6748 20.4422C32.8125 19.1418 32.8097 17.828 32.6721 16.503C33.3575 16.2914 34.0196 16.1483 34.6497 16.0762C34.7669 19.5342 35.2578 22.9787 36.1106 26.3204C36.2069 26.697 36.3124 27.0875 36.4254 27.4866C33.8189 29.7922 31.8391 32.616 30.6819 35.6866C30.2712 36.7806 29.9553 37.9198 29.7424 39.0742C29.4846 40.4723 30.4455 41.9339 31.8614 42.1909C33.2717 42.4468 34.6652 41.4926 34.9231 40.0646C35.0785 39.2045 35.3122 38.3561 35.6178 37.5439C36.23 35.9186 37.1497 34.3961 38.3562 33.0104C39.4501 35.6175 40.785 38.1457 42.3282 40.5331C43.1346 41.7806 44.8895 42.1099 46.0961 41.2318C47.2249 40.4103 47.5041 38.8276 46.731 37.6282C45.8654 36.2873 45.0663 34.882 44.3534 33.4475C45.3012 33.1133 46.2803 32.9541 47.2671 32.9742C49.2285 33.0144 50.7248 33.7345 51.6347 34.3314C52.8356 35.1193 54.5222 34.767 55.3018 33.5489C56.08 32.3333 55.7112 30.692 54.4793 29.8904ZM20.5762 47.7873C20.4742 47.3128 20.0067 47.0109 19.5321 47.1129C19.0575 47.215 18.7556 47.6824 18.8577 48.157C19.6455 51.8199 21.1794 55.656 23.4167 59.5586C23.6607 59.9842 24.2015 60.1219 24.6163 59.884C25.0374 59.6425 25.1831 59.1054 24.9416 58.6844C22.7946 54.9392 21.3259 51.2728 20.5762 47.7873Z" fill="#0087DF"/>
</svg>
