<svg width="296" height="258" viewBox="0 0 296 258" fill="none" xmlns="http://www.w3.org/2000/svg">
<path d="M72.79 8L93.29 38" stroke="#0087DF" stroke-width="3" stroke-linecap="round"/>
<path d="M223.345 254.511L202.845 224.511" stroke="#0087DF" stroke-width="3" stroke-linecap="round"/>
<path d="M69.3643 254.511L85.095 221.758" stroke="#0087DF" stroke-width="3" stroke-linecap="round"/>
<path d="M226.771 8L211.04 40.7535" stroke="#0087DF" stroke-width="3" stroke-linecap="round"/>
<path d="M141.785 23.3346L141.565 1.5" stroke="#0087DF" stroke-width="3" stroke-linecap="round"/>
<path d="M141.565 233L141.565 256.5" stroke="#0087DF" stroke-width="3" stroke-linecap="round"/>
<path d="M48.147 187.093L27 199.5" stroke="#0087DF" stroke-width="3" stroke-linecap="round"/>
<path d="M247.988 75.4187L268.5 63.5" stroke="#0087DF" stroke-width="3" stroke-linecap="round"/>
<path d="M57.4166 81.8655L37 71.5" stroke="#0087DF" stroke-width="3" stroke-linecap="round"/>
<path d="M238.718 180.646L259.5 190.5" stroke="#0087DF" stroke-width="3" stroke-linecap="round"/>
<path d="M2 133.908L38.3329 134.322" stroke="#0087DF" stroke-width="3" stroke-linecap="round"/>
<path d="M294.135 128.604L257.802 128.189" stroke="#0087DF" stroke-width="3" stroke-linecap="round"/>
<path d="M126.889 204.001C121.707 204.001 116.773 201.488 113.495 197.306C111.043 198.612 108.43 199.272 105.697 199.272C98.0666 199.272 91.3842 193.874 89.1054 186.157C79.9667 185.607 72.6866 177.388 72.6866 167.359C72.6866 166.647 72.7244 165.928 72.7986 165.21C69.5599 161.676 67.79 157.034 67.79 151.993C67.79 146.263 70.2201 140.874 74.2558 137.389C72.8204 134.574 72.0947 131.517 72.0947 128.27C72.0947 121.935 75.1647 115.998 80.0743 112.544C79.3254 110.41 78.9342 108.177 78.9342 105.981C78.9342 97.2891 84.4212 89.852 92.0358 87.7345C92.0256 87.4844 92.0198 87.2343 92.0198 86.9856C92.0198 76.6035 99.8598 68.157 109.497 68.157C109.849 68.157 110.192 68.1687 110.525 68.189C113.009 60.906 119.452 56.0007 126.889 56.0007C136.478 56.0007 144.281 64.4094 144.281 74.7435C144.281 76.1425 143.146 77.2768 141.747 77.2768C140.348 77.2768 139.214 76.1425 139.214 74.7435C139.214 67.2016 133.685 61.0674 126.889 61.0674C121.105 61.0674 116.152 65.3794 114.845 71.5542C114.699 72.2363 114.28 72.8296 113.684 73.1917C113.089 73.5539 112.372 73.6557 111.696 73.4724C111.104 73.3095 110.344 73.2237 109.497 73.2237C102.653 73.2237 97.0865 79.3971 97.0865 86.9856C97.0865 87.8378 97.1664 88.69 97.2435 89.5436C97.3671 90.9034 96.3913 92.1162 95.0359 92.2849C88.7447 93.0702 84.0009 98.9586 84.0009 105.981C84.0009 108.166 84.5273 110.412 85.522 112.48C86.1168 113.717 85.6209 115.201 84.4022 115.83C80.003 118.103 77.1614 122.985 77.1614 128.27C77.1614 131.318 78.0121 134.141 79.6904 136.659C80.0685 137.226 80.2023 137.922 80.0612 138.591C79.9202 139.257 79.5159 139.838 78.94 140.202C75.1865 142.584 72.8567 147.101 72.8567 151.993C72.8567 156.094 74.4041 159.817 77.2152 162.481C77.826 163.06 78.1096 163.907 77.9714 164.736C77.826 165.605 77.7533 166.489 77.7533 167.359C77.7547 175.026 83.4104 181.186 90.2877 181.122C90.3546 181.122 90.4229 181.119 90.4898 181.108C91.8656 180.875 93.3373 181.748 93.5845 183.121C94.7392 189.543 99.8336 194.205 105.697 194.205C108.181 194.205 110.552 193.402 112.739 191.817C113.322 191.395 114.053 191.244 114.757 191.392C115.46 191.541 116.065 191.983 116.423 192.608C118.661 196.512 122.672 198.934 126.889 198.934C133.685 198.934 139.214 192.762 139.214 185.174C139.214 183.775 140.348 182.641 141.747 182.641C143.146 182.641 144.281 183.775 144.281 185.174C144.281 195.555 136.478 204.001 126.889 204.001Z" fill="#0087DF"/>
<path d="M141.746 187.707C140.347 187.707 139.213 186.573 139.213 185.174V74.7431C139.213 73.3441 140.347 72.2097 141.746 72.2097C143.145 72.2097 144.28 73.3441 144.28 74.7431V185.174C144.28 186.573 143.145 187.707 141.746 187.707Z" fill="#0087DF"/>
<path d="M103.42 120.502C102.592 120.502 101.78 120.096 101.294 119.348C97.6746 113.783 90.1865 112.147 84.6007 115.716C83.4212 116.464 81.8564 116.121 81.1031 114.94C80.3513 113.761 80.6988 112.196 81.8782 111.443C89.7953 106.392 100.412 108.7 105.541 116.588C106.303 117.76 105.971 119.329 104.798 120.091C104.372 120.369 103.893 120.502 103.42 120.502Z" fill="#0087DF"/>
<path d="M91.0886 186.101C89.8437 186.101 88.7574 185.182 88.5828 183.914C88.3909 182.529 89.3594 181.249 90.7454 181.057C93.9055 180.621 96.7181 178.96 98.661 176.378C100.604 173.795 101.431 170.624 100.994 167.451C100.802 166.067 101.77 164.787 103.156 164.595C104.533 164.415 105.82 165.374 106.011 166.759C106.635 171.267 105.461 175.764 102.708 179.423C99.948 183.09 95.9459 185.452 91.4376 186.078C91.3213 186.092 91.2035 186.101 91.0886 186.101Z" fill="#0087DF"/>
<path d="M141.749 139.835C140.697 139.835 139.714 139.175 139.354 138.125C137.741 133.427 133.382 130.179 128.508 130.04C127.109 130.001 126.008 128.835 126.047 127.437C126.088 126.04 127.341 125.036 128.65 124.977C135.625 125.174 141.851 129.797 144.144 136.478C144.599 137.802 143.894 139.242 142.57 139.698C142.298 139.791 142.021 139.835 141.749 139.835Z" fill="#0087DF"/>
<path d="M118.868 156.129C104.441 156.129 92.506 145.347 91.1041 131.05C90.9674 129.658 91.9854 128.419 93.3771 128.282C94.7631 128.132 96.0094 129.163 96.1446 130.555C97.2921 142.246 107.06 151.062 118.868 151.062C120.267 151.062 121.401 152.196 121.401 153.595C121.401 154.994 120.267 156.129 118.868 156.129Z" fill="#0087DF"/>
<path d="M88.7255 153.767C88.0769 153.767 87.4283 153.52 86.9339 153.025C85.945 152.034 85.945 150.431 86.9353 149.442C91.0015 145.379 96.8084 143.596 102.461 144.692C103.834 144.957 104.733 146.286 104.468 147.659C104.203 149.032 102.887 149.945 101.501 149.666C97.4977 148.901 93.3923 150.149 90.5158 153.025C90.0213 153.52 89.3742 153.767 88.7255 153.767Z" fill="#0087DF"/>
<path d="M128.832 187.959C127.433 187.959 126.298 186.825 126.298 185.426C126.298 180.679 124.785 175.921 122.035 172.026C121.229 170.883 121.501 169.304 122.642 168.498C123.79 167.69 125.365 167.96 126.173 169.106C129.521 173.847 131.365 179.644 131.365 185.426C131.365 186.825 130.231 187.959 128.832 187.959Z" fill="#0087DF"/>
<path d="M122.249 80.5687C121.377 80.5687 120.527 80.1179 120.058 79.3093C118.305 76.2989 115.26 74.135 111.911 73.5198C110.535 73.2668 109.623 71.9477 109.876 70.572C110.128 69.1962 111.45 68.2684 112.824 68.5375C117.681 69.4289 121.913 72.4262 124.435 76.7614C125.139 77.9714 124.729 79.5216 123.52 80.224C123.119 80.4582 122.681 80.5687 122.249 80.5687Z" fill="#0087DF"/>
<path d="M127.982 111.553C127.632 111.553 127.275 111.481 126.935 111.325C118.753 107.606 112.82 100.145 111.063 91.3651C110.79 89.9923 111.678 88.6587 113.05 88.3838C114.434 88.1191 115.756 89.0004 116.031 90.3704C117.468 97.5574 122.328 103.667 129.032 106.715C130.305 107.294 130.869 108.795 130.289 110.069C129.865 111.002 128.945 111.553 127.982 111.553Z" fill="#0087DF"/>
<path d="M119.372 121.599C118.145 121.599 117.067 120.705 116.872 119.454C116.039 114.092 116.776 108.611 119.001 103.601C119.57 102.321 121.066 101.747 122.345 102.314C123.623 102.883 124.199 104.379 123.632 105.657C121.801 109.776 121.194 114.278 121.878 118.678C122.093 120.059 121.146 121.353 119.763 121.569C119.632 121.589 119.502 121.599 119.372 121.599Z" fill="#0087DF"/>
<path d="M156.69 204C147.054 204 139.213 195.554 139.213 185.173C139.213 183.774 140.347 182.64 141.746 182.64C143.145 182.64 144.28 183.774 144.28 185.173C144.28 192.762 149.847 198.934 156.69 198.934C160.908 198.934 164.916 196.511 167.158 192.608C167.519 191.976 168.133 191.531 168.842 191.386C169.558 191.243 170.297 191.403 170.875 191.84C172.906 193.367 175.363 194.204 177.795 194.204C183.708 194.204 188.839 189.542 189.993 183.12C190.118 182.431 190.523 181.823 191.11 181.442C191.701 181.061 192.431 180.947 193.1 181.11C193.222 181.133 193.359 181.119 193.498 181.119C200.295 181.119 205.825 174.947 205.825 167.358C205.825 166.489 205.752 165.605 205.606 164.735C205.47 163.918 205.743 163.083 206.339 162.504C209.126 159.793 210.723 155.963 210.723 151.992C210.723 147.132 208.358 142.615 204.554 140.204C203.978 139.838 203.573 139.256 203.431 138.59C203.291 137.921 203.422 137.226 203.803 136.659C205.537 134.058 206.415 131.236 206.415 128.269C206.415 122.984 203.573 118.102 199.176 115.829C197.96 115.201 197.463 113.717 198.056 112.481C199.051 110.412 199.577 108.163 199.577 105.981C199.577 98.955 194.798 93.0681 188.461 92.2842C187.771 92.1999 187.143 91.8334 186.733 91.272C186.32 90.7107 186.154 90.0039 186.279 89.3189C186.422 88.5423 186.491 87.757 186.491 86.9848C186.491 79.3964 180.924 73.223 174.081 73.223C173.223 73.223 172.484 73.3059 171.879 73.4717C171.201 73.6535 170.486 73.5546 169.892 73.191C169.296 72.8274 168.877 72.2355 168.732 71.552C167.426 65.3786 162.476 61.0667 156.69 61.0667C149.847 61.0667 144.28 67.2008 144.28 74.7427C144.28 76.1417 143.145 77.2761 141.746 77.2761C140.347 77.2761 139.213 76.1417 139.213 74.7427C139.213 64.4086 147.054 56 156.69 56C164.128 56 170.57 60.9053 173.051 68.1883C173.386 68.1679 173.729 68.1563 174.081 68.1563C183.717 68.1563 191.558 76.6027 191.558 86.9848C191.558 87.2393 191.552 87.4953 191.541 87.7512C199.161 89.8919 204.644 97.3102 204.644 105.981C204.644 108.175 204.254 110.409 203.504 112.544C208.413 115.996 211.482 121.934 211.482 128.269C211.482 131.467 210.731 134.527 209.245 137.392C213.329 140.893 215.789 146.283 215.789 151.992C215.789 156.876 213.977 161.614 210.778 165.189C210.854 165.913 210.891 166.637 210.891 167.358C210.891 177.387 203.611 185.607 194.473 186.156C192.189 193.873 185.473 199.271 177.795 199.271C175.139 199.271 172.472 198.588 170.076 197.316C166.798 201.49 161.865 204 156.69 204Z" fill="#0087DF"/>
<path d="M180.159 120.501C179.685 120.501 179.208 120.369 178.78 120.091C177.608 119.329 177.277 117.76 178.039 116.588C183.222 108.617 193.611 106.348 201.691 111.435C202.875 112.18 203.23 113.745 202.485 114.929C201.737 116.112 200.178 116.467 198.992 115.723C193.282 112.125 185.941 113.724 182.285 119.348C181.799 120.096 180.988 120.501 180.159 120.501Z" fill="#0087DF"/>
<path d="M192.49 186.101C192.376 186.101 192.26 186.092 192.144 186.078C187.641 185.461 183.645 183.126 180.896 179.499C178.121 175.837 176.938 171.314 177.566 166.759C177.761 165.372 179.064 164.432 180.422 164.595C181.809 164.787 182.775 166.067 182.586 167.451C182.141 170.665 182.976 173.856 184.933 176.439C186.865 178.987 189.668 180.627 192.83 181.058C194.214 181.247 195.186 182.524 194.997 183.911C194.822 185.179 193.737 186.101 192.49 186.101Z" fill="#0087DF"/>
<path d="M141.747 159.592C141.463 159.592 141.175 159.546 140.893 159.444C139.575 158.973 138.89 157.521 139.362 156.204C141.75 149.537 147.846 145.032 154.893 144.732C156.159 144.636 157.47 145.756 157.531 147.155C157.593 148.551 156.508 149.732 155.109 149.793C150.129 150.006 145.822 153.193 144.132 157.914C143.761 158.946 142.786 159.592 141.747 159.592Z" fill="#0087DF"/>
<path d="M164.712 156.128C163.313 156.128 162.179 154.994 162.179 153.595C162.179 152.196 163.313 151.061 164.712 151.061C176.521 151.061 186.291 142.246 187.434 130.555C187.57 129.164 188.789 128.143 190.203 128.282C191.596 128.417 192.614 129.657 192.477 131.049C191.075 145.346 179.139 156.128 164.712 156.128Z" fill="#0087DF"/>
<path d="M194.768 153.767C194.111 153.767 193.451 153.511 192.956 153.002C190.205 150.18 186.022 148.901 182.078 149.666C180.703 149.945 179.376 149.031 179.112 147.659C178.847 146.286 179.746 144.957 181.119 144.692C186.802 143.598 192.593 145.378 196.58 149.465C197.558 150.465 197.537 152.068 196.537 153.045C196.045 153.525 195.405 153.767 194.768 153.767Z" fill="#0087DF"/>
<path d="M154.748 187.96C153.349 187.96 152.215 186.825 152.215 185.426C152.215 179.644 154.059 173.847 157.41 169.106C158.209 167.96 159.795 167.684 160.938 168.499C162.081 169.304 162.354 170.884 161.545 172.027C158.797 175.924 157.282 180.682 157.282 185.426C157.282 186.825 156.147 187.96 154.748 187.96Z" fill="#0087DF"/>
<path d="M161.329 80.5684C160.899 80.5684 160.46 80.4579 160.058 80.2238C158.848 79.5213 158.438 77.9711 159.142 76.7611C161.664 72.4259 165.896 69.4287 170.753 68.5372C172.129 68.2827 173.446 69.196 173.699 70.5717C173.952 71.9475 173.042 73.2665 171.666 73.5195C168.319 74.1347 165.273 76.2987 163.522 79.309C163.051 80.1176 162.202 80.5684 161.329 80.5684Z" fill="#0087DF"/>
<path d="M155.255 121.515C154.618 121.515 153.981 121.277 153.49 120.799C152.486 119.824 152.463 118.22 153.437 117.217C158.606 111.898 160.878 104.402 159.519 97.1607C159.26 95.7864 160.168 94.463 161.541 94.2042C162.946 93.9511 164.24 94.8528 164.499 96.2271C166.159 105.082 163.385 114.25 157.073 120.748C156.576 121.258 155.916 121.515 155.255 121.515Z" fill="#0087DF"/>
<path d="M162.173 107.247C160.98 107.247 159.919 106.401 159.686 105.187C159.427 103.812 160.329 102.486 161.704 102.226C166.195 101.374 170.253 99.3231 173.435 96.2938C174.441 95.3297 176.049 95.3675 177.015 96.3826C177.978 97.3962 177.94 99.0003 176.925 99.9644C173.036 103.666 168.1 106.168 162.647 107.202C162.487 107.233 162.33 107.247 162.173 107.247Z" fill="#0087DF"/>
</svg>
