<svg width="49" height="50" viewBox="0 0 49 50" fill="none" xmlns="http://www.w3.org/2000/svg">
<path d="M19.5664 49.4997C17.8509 49.4997 16.2172 48.6677 15.132 47.283C14.3202 47.7154 13.455 47.934 12.5503 47.934C10.0239 47.934 7.81153 46.1467 7.05705 43.592C4.03143 43.41 1.62114 40.6887 1.62114 37.3684C1.62114 37.1324 1.63366 36.8946 1.65821 36.6567C0.585963 35.4867 0 33.9499 0 32.281C0 30.384 0.804551 28.5997 2.14066 27.446C1.66544 26.5139 1.42518 25.5018 1.42518 24.4267C1.42518 22.3293 2.44159 20.3639 4.06706 19.2204C3.8191 18.5136 3.68958 17.7745 3.68958 17.0475C3.68958 14.1697 5.50621 11.7074 8.02724 11.0064C8.02386 10.9236 8.02194 10.8407 8.02194 10.7584C8.02194 7.32113 10.6176 4.52469 13.8084 4.52469C13.9249 4.52469 14.0385 4.52854 14.1488 4.53529C14.9711 2.12403 17.1041 0.5 19.5664 0.5C22.7413 0.5 25.3244 3.28392 25.3244 6.70531C25.3244 7.1685 24.9489 7.54405 24.4857 7.54405C24.0225 7.54405 23.6469 7.1685 23.6469 6.70531C23.6469 4.20836 21.8163 2.17747 19.5664 2.17747C17.6515 2.17747 16.0116 3.60506 15.5788 5.64943C15.5306 5.87524 15.392 6.07169 15.1945 6.19157C14.9976 6.31146 14.7603 6.34516 14.5364 6.2845C14.3404 6.23057 14.0886 6.20216 13.8084 6.20216C11.5425 6.20216 9.69941 8.24605 9.69941 10.7584C9.69941 11.0406 9.72589 11.3227 9.75141 11.6053C9.79233 12.0555 9.46926 12.4571 9.02052 12.5129C6.93764 12.7729 5.36705 14.7224 5.36705 17.0475C5.36705 17.7707 5.54135 18.5146 5.87068 19.1992C6.06761 19.6085 5.90343 20.1001 5.49994 20.3081C4.04346 21.0606 3.10265 22.677 3.10265 24.4267C3.10265 25.4358 3.38432 26.3704 3.93995 27.2043C4.06513 27.3921 4.10943 27.6222 4.06273 27.8437C4.01602 28.0642 3.88217 28.2568 3.6915 28.3772C2.4488 29.1659 1.67747 30.6614 1.67747 32.281C1.67747 33.6388 2.18977 34.8714 3.12047 35.7535C3.32269 35.9451 3.41658 36.2253 3.37083 36.4998C3.32269 36.7877 3.29861 37.0804 3.29861 37.3684C3.29909 39.9067 5.17157 41.9463 7.44849 41.9251C7.47064 41.9251 7.49327 41.9241 7.51541 41.9203C7.9709 41.8432 8.45815 42.1321 8.54 42.5866C8.9223 44.7129 10.6089 46.2565 12.5503 46.2565C13.3726 46.2565 14.1574 45.9907 14.8816 45.4659C15.0746 45.3263 15.3168 45.2762 15.5499 45.3253C15.7824 45.3744 15.9827 45.5208 16.1012 45.7278C16.8422 47.0201 18.1701 47.8223 19.5664 47.8223C21.8163 47.8223 23.6469 45.7789 23.6469 43.2665C23.6469 42.8033 24.0225 42.4278 24.4857 42.4278C24.9488 42.4278 25.3244 42.8033 25.3244 43.2665C25.3244 46.7033 22.7413 49.4997 19.5664 49.4997Z" fill="#0087DF"/>
<path d="M24.4852 44.1054C24.022 44.1054 23.6465 43.7298 23.6465 43.2666V6.70544C23.6465 6.24225 24.022 5.8667 24.4852 5.8667C24.9484 5.8667 25.324 6.24225 25.324 6.70544V43.2666C25.324 43.7298 24.9484 44.1054 24.4852 44.1054Z" fill="#0087DF"/>
<path d="M11.7966 21.8551C11.5222 21.8551 11.2535 21.7207 11.0927 21.4733C9.89429 19.6306 7.41515 19.089 5.56578 20.2705C5.17531 20.5185 4.65723 20.4049 4.40782 20.0139C4.1589 19.6234 4.27397 19.1053 4.66445 18.8559C7.28563 17.1838 10.8004 17.9479 12.4986 20.5594C12.7509 20.9475 12.6411 21.467 12.2526 21.7193C12.1115 21.8113 11.9531 21.8551 11.7966 21.8551Z" fill="#0087DF"/>
<path d="M7.7136 43.5736C7.30145 43.5736 6.94178 43.2693 6.88401 42.8495C6.82045 42.3911 7.14112 41.9674 7.59997 41.9038C8.64622 41.7594 9.5774 41.2095 10.2207 40.3544C10.8639 39.4993 11.1379 38.4497 10.993 37.3991C10.9294 36.9407 11.2501 36.517 11.7089 36.4535C12.1649 36.3938 12.591 36.7116 12.6541 37.1699C12.8606 38.6625 12.4721 40.1513 11.5606 41.3627C10.6468 42.577 9.32174 43.3589 7.82915 43.5659C7.79063 43.5707 7.75164 43.5736 7.7136 43.5736Z" fill="#0087DF"/>
<path d="M24.486 28.256C24.1379 28.256 23.8124 28.0374 23.693 27.6897C23.159 26.1346 21.716 25.0589 20.1021 25.0132C19.6389 25.0002 19.2744 24.614 19.2874 24.1513C19.3009 23.6886 19.716 23.3564 20.1493 23.3367C22.4585 23.4022 24.5197 24.9328 25.279 27.1447C25.4297 27.5828 25.1962 28.0595 24.758 28.2107C24.668 28.2415 24.576 28.256 24.486 28.256Z" fill="#0087DF"/>
<path d="M16.9109 33.6504C12.1346 33.6504 8.18307 30.0807 7.71892 25.3473C7.67366 24.8865 8.0107 24.4763 8.47147 24.4311C8.93032 24.3815 9.34295 24.7228 9.38773 25.1836C9.76762 29.0542 13.0017 31.973 16.9109 31.973C17.374 31.973 17.7496 32.3485 17.7496 32.8117C17.7496 33.2749 17.374 33.6504 16.9109 33.6504Z" fill="#0087DF"/>
<path d="M6.93145 32.8686C6.71671 32.8686 6.50197 32.7867 6.33827 32.623C6.01086 32.2946 6.01086 31.764 6.33875 31.4366C7.68497 30.0914 9.60752 29.5011 11.479 29.8641C11.9335 29.9518 12.2311 30.3918 12.1435 30.8463C12.0558 31.3009 11.6201 31.6032 11.1612 31.5108C9.83573 31.2575 8.47651 31.6706 7.52415 32.623C7.36045 32.7867 7.14619 32.8686 6.93145 32.8686Z" fill="#0087DF"/>
<path d="M20.2095 44.1892C19.7463 44.1892 19.3707 43.8136 19.3707 43.3504C19.3707 41.7789 18.8695 40.2035 17.959 38.9141C17.6923 38.5356 17.7823 38.0127 18.1603 37.746C18.5402 37.4783 19.0616 37.5678 19.3293 37.9473C20.4377 39.5169 21.0482 41.4361 21.0482 43.3504C21.0482 43.8136 20.6727 44.1892 20.2095 44.1892Z" fill="#0087DF"/>
<path d="M18.0303 8.63418C17.7414 8.63418 17.4602 8.48492 17.3047 8.21721C16.7245 7.22055 15.7163 6.50411 14.6075 6.30044C14.152 6.21666 13.8501 5.77996 13.9339 5.32448C14.0172 4.869 14.4548 4.56181 14.9098 4.65089C16.518 4.94603 17.9191 5.93837 18.754 7.37366C18.987 7.77425 18.8512 8.28751 18.4511 8.52006C18.3182 8.59758 18.1733 8.63418 18.0303 8.63418Z" fill="#0087DF"/>
<path d="M19.9284 18.8925C19.8124 18.8925 19.6945 18.8685 19.5818 18.8169C16.873 17.5858 14.9085 15.1153 14.3269 12.2086C14.2364 11.7541 14.5306 11.3126 14.9846 11.2216C15.443 11.134 15.8806 11.4257 15.9716 11.8793C16.4474 14.2588 18.0565 16.2815 20.2761 17.2906C20.6974 17.4823 20.8842 17.9792 20.6921 18.4009C20.552 18.7101 20.2472 18.8925 19.9284 18.8925Z" fill="#0087DF"/>
<path d="M17.0776 22.2185C16.6712 22.2185 16.3145 21.9224 16.2499 21.5083C15.9741 19.7331 16.2182 17.9184 16.9548 16.2597C17.1431 15.836 17.6385 15.6458 18.0618 15.8336C18.485 16.0218 18.6756 16.5173 18.4879 16.9405C17.8817 18.3041 17.6809 19.7947 17.9072 21.2512C17.9785 21.7086 17.665 22.1371 17.2071 22.2084C17.1638 22.2151 17.1205 22.2185 17.0776 22.2185Z" fill="#0087DF"/>
<path d="M29.4329 49.4997C26.2426 49.4997 23.6465 46.7033 23.6465 43.2665C23.6465 42.8033 24.022 42.4278 24.4852 42.4278C24.9484 42.4278 25.324 42.8033 25.324 43.2665C25.324 45.7789 27.1671 47.8223 29.4329 47.8223C30.8292 47.8223 32.1562 47.0201 32.8986 45.7278C33.018 45.5189 33.2212 45.3715 33.4562 45.3234C33.693 45.2762 33.9376 45.3292 34.1293 45.4736C34.8014 45.9792 35.6151 46.2565 36.4201 46.2565C38.3778 46.2565 40.0765 44.7129 40.4588 42.5867C40.5002 42.3584 40.6341 42.1572 40.8286 42.031C41.0241 41.9049 41.2658 41.8673 41.4872 41.9212C41.5277 41.9289 41.5729 41.9241 41.6192 41.9241C43.8696 41.9241 45.7002 39.8807 45.7002 37.3684C45.7002 37.0804 45.6761 36.7877 45.628 36.4998C45.5827 36.2292 45.6732 35.9528 45.8706 35.7612C46.7932 34.8637 47.3218 33.5955 47.3218 32.281C47.3218 30.6719 46.5389 29.1765 45.2794 28.3782C45.0887 28.2568 44.9549 28.0642 44.9077 27.8437C44.8615 27.6222 44.9048 27.3921 45.0309 27.2043C45.6049 26.3434 45.8957 25.4089 45.8957 24.4267C45.8957 22.677 44.9549 21.0606 43.4989 20.3081C43.0964 20.1001 42.9317 19.609 43.1281 19.1997C43.4575 18.5146 43.6318 17.7702 43.6318 17.0475C43.6318 14.7215 42.0496 12.7724 39.9513 12.5129C39.7231 12.485 39.5151 12.3637 39.3793 12.1778C39.2426 11.992 39.1877 11.758 39.2291 11.5312C39.2763 11.2741 39.2994 11.0141 39.2994 10.7584C39.2994 8.24604 37.4563 6.20216 35.1904 6.20216C34.9064 6.20216 34.6618 6.2296 34.4615 6.28449C34.2371 6.34468 34.0002 6.31194 33.8038 6.19157C33.6064 6.0712 33.4677 5.87524 33.4196 5.64894C32.9872 3.60506 31.3482 2.17747 29.4329 2.17747C27.1671 2.17747 25.324 4.20835 25.324 6.70531C25.324 7.1685 24.9484 7.54405 24.4852 7.54405C24.022 7.54405 23.6465 7.1685 23.6465 6.70531C23.6465 3.28392 26.2426 0.5 29.4329 0.5C31.8952 0.5 34.0282 2.12403 34.8496 4.53529C34.9603 4.52854 35.0739 4.52469 35.1904 4.52469C38.3807 4.52469 40.9769 7.32113 40.9769 10.7584C40.9769 10.8427 40.9749 10.9274 40.9711 11.0122C43.4941 11.7209 45.3092 14.1769 45.3092 17.0475C45.3092 17.7741 45.1802 18.5136 44.9317 19.2204C46.5572 20.3635 47.5731 22.3293 47.5731 24.4267C47.5731 25.4854 47.3247 26.4985 46.8326 27.447C48.1846 28.6064 48.9993 30.3908 48.9993 32.281C48.9993 33.8979 48.3994 35.4665 47.3401 36.65C47.3652 36.8898 47.3777 37.1296 47.3777 37.3684C47.3777 40.6887 44.9674 43.41 41.9418 43.592C41.1858 46.1467 38.9624 47.934 36.4201 47.934C35.541 47.934 34.6579 47.7077 33.8645 47.2869C32.7792 48.6687 31.146 49.4997 29.4329 49.4997Z" fill="#0087DF"/>
<path d="M37.2029 21.8552C37.0459 21.8552 36.888 21.8114 36.7464 21.7195C36.3583 21.4672 36.2486 20.9477 36.5009 20.5596C38.2169 17.9206 41.6565 17.1695 44.3316 18.8537C44.7236 19.1002 44.8411 19.6183 44.5945 20.0102C44.3471 20.4021 43.8309 20.5196 43.438 20.2731C41.5477 19.0819 39.1172 19.6115 37.9068 21.4734C37.746 21.7209 37.4773 21.8552 37.2029 21.8552Z" fill="#0087DF"/>
<path d="M41.2855 43.5737C41.2479 43.5737 41.2094 43.5708 41.1709 43.566C39.6802 43.3618 38.3571 42.5886 37.4471 41.3878C36.5284 40.1754 36.1365 38.678 36.3445 37.17C36.409 36.7107 36.8404 36.3997 37.2901 36.4536C37.7495 36.5171 38.0692 36.9408 38.0066 37.3992C37.8593 38.4633 38.1356 39.5196 38.7837 40.3748C39.4231 41.2183 40.3514 41.7614 41.3981 41.9039C41.8565 41.9665 42.1781 42.3893 42.1155 42.8486C42.0577 43.2684 41.6986 43.5737 41.2855 43.5737Z" fill="#0087DF"/>
<path d="M24.4854 34.7972C24.3915 34.7972 24.2962 34.7818 24.2027 34.748C23.7665 34.592 23.5397 34.1115 23.6957 33.6753C24.4863 31.4682 26.5047 29.9766 28.838 29.8774C29.2568 29.8456 29.6911 30.2163 29.7114 30.6795C29.7316 31.1418 29.3724 31.5327 28.9092 31.5529C27.2606 31.6232 25.8345 32.6786 25.275 34.2415C25.1522 34.5834 24.8296 34.7972 24.4854 34.7972Z" fill="#0087DF"/>
<path d="M32.0887 33.6503C31.6256 33.6503 31.25 33.2747 31.25 32.8115C31.25 32.3484 31.6256 31.9728 32.0887 31.9728C35.9984 31.9728 39.2329 29.0541 39.6114 25.1835C39.6566 24.7232 40.0601 24.3852 40.5281 24.4309C40.9894 24.4757 41.3264 24.8864 41.2812 25.3472C40.817 30.0806 36.865 33.6503 32.0887 33.6503Z" fill="#0087DF"/>
<path d="M42.0397 32.8684C41.8221 32.8684 41.6035 32.7836 41.4398 32.6151C40.5289 31.6811 39.1441 31.2574 37.8383 31.5106C37.3829 31.6031 36.9438 31.3007 36.8561 30.8462C36.7685 30.3917 37.0661 29.9516 37.5206 29.864C39.4022 29.5019 41.3194 30.0912 42.6397 31.4442C42.9632 31.7754 42.9565 32.306 42.6252 32.6296C42.4625 32.7885 42.2506 32.8684 42.0397 32.8684Z" fill="#0087DF"/>
<path d="M28.7899 44.189C28.3267 44.189 27.9512 43.8135 27.9512 43.3503C27.9512 41.4359 28.5617 39.5167 29.671 37.9471C29.9358 37.5677 30.4606 37.4762 30.8391 37.7459C31.2175 38.0126 31.308 38.5355 31.0403 38.9139C30.1303 40.2043 29.6286 41.7797 29.6286 43.3503C29.6286 43.8135 29.2531 44.189 28.7899 44.189Z" fill="#0087DF"/>
<path d="M30.969 8.63409C30.8264 8.63409 30.681 8.5975 30.5481 8.51998C30.1476 8.28743 30.0118 7.77417 30.2448 7.37358C31.0797 5.93829 32.4808 4.94595 34.089 4.65081C34.5444 4.56655 34.9806 4.86892 35.0644 5.3244C35.1482 5.77988 34.8468 6.21658 34.3913 6.30036C33.2829 6.50403 32.2747 7.22047 31.695 8.21713C31.539 8.48483 31.2579 8.63409 30.969 8.63409Z" fill="#0087DF"/>
<path d="M28.958 22.1906C28.7471 22.1906 28.5362 22.1116 28.3735 21.9532C28.0412 21.6306 28.0335 21.0995 28.3561 20.7673C30.0673 19.0065 30.8194 16.5245 30.3697 14.1272C30.284 13.6722 30.5844 13.2341 31.0389 13.1484C31.504 13.0646 31.9326 13.3631 32.0183 13.8181C32.5681 16.7498 31.6494 19.7851 29.5598 21.9363C29.3952 22.1053 29.1766 22.1906 28.958 22.1906Z" fill="#0087DF"/>
<path d="M31.2482 17.4667C30.8533 17.4667 30.5019 17.1865 30.4248 16.7844C30.3391 16.3294 30.6376 15.8903 31.0931 15.8041C32.5799 15.522 33.9233 14.8431 34.9767 13.8402C35.3099 13.521 35.8424 13.5335 36.1621 13.8696C36.4809 14.2052 36.4684 14.7362 36.1323 15.0554C34.8448 16.2808 33.2107 17.1094 31.4051 17.4518C31.3522 17.4619 31.3002 17.4667 31.2482 17.4667Z" fill="#0087DF"/>
</svg>
