<?xml version="1.0" encoding="utf-8"?>
<!-- Generator: Adobe Illustrator 23.0.1, SVG Export Plug-In . SVG Version: 6.00 Build 0)  -->
<svg version="1.1" id="Layer_1" xmlns="http://www.w3.org/2000/svg" xmlns:xlink="http://www.w3.org/1999/xlink" x="0px" y="0px"
	 viewBox="0 0 42.7 57" style="enable-background:new 0 0 42.7 57;" xml:space="preserve">
<style type="text/css">
	.st0{fill:#FFFFFF;}
</style>
<g>
	<path class="st0" d="M39.2,34.9L39.2,34.9c0.2,0.4,0.6,0.7,1.1,0.7c0.2,0,0.3,0,0.5-0.1c0.6-0.3,0.9-0.9,0.6-1.5
		c-0.3-0.6-0.9-0.8-1.5-0.6C39.2,33.7,38.9,34.3,39.2,34.9z"/>
	<path class="st0" d="M42.4,38.2c-0.1-0.6-0.7-1-1.3-0.9s-1.1,0.7-1,1.3c0.3,1.6,0.3,3.2,0.2,4.8c-0.3,3.6-2.3,7-5.4,9.2l-0.8,0.5
		c-1.5,1.1-3.4,1.6-5.3,1.6c-0.7,0-1.4-0.1-2.1-0.2l-3.1-0.7c-6-1.3-11.4-4.5-15.3-8.9c-1.7-2-2.5-3.4-3.1-4.8c0-0.1,0.1-0.3,0-0.5
		c0,0-0.6-4.9,6.5-7.9c4.9-2.1,7.1-5.7,7.9-7.3c5.3,0.7,7.2,2.1,7.3,2.3c0.3,0.3,0.7,0.4,1.1,0.3c0.1,0,0.2,0,0.3-0.1
		c3.7-0.7,7.6,1.2,9.2,4.5c0.3,0.6,1,0.8,1.5,0.6c0.6-0.3,0.9-0.9,0.6-1.5c-0.9-1.9-2.4-3.5-4.3-4.6l0,0c0.2-0.7,0.4-1.5,0.4-2.2
		c0-0.2,0-0.3,0-0.5h0.8c0.6,0,1.2-0.5,1.2-1.1S37.2,21,36.5,21h-1.3c-0.3-0.7-0.7-1.4-1.2-2l0.5-0.5c0.5-0.4,0.5-1.1,0-1.6
		c-0.5-0.4-1.2-0.4-1.6,0l-0.6,0.6c-0.9-0.6-2-1-3.2-1.2c1.5-1.2,3.6-1.7,6-1.7c0.3,0,0.6-0.1,0.9-0.3c0.2-0.2,0.4-0.5,0.4-0.8V9.3
		c0-0.6-0.5-1.1-1.1-1.1c-0.2,0-2.4-0.2-5.2,0.2C28.8,6,27,4.2,25,3.3l0.8-1.2c0.4-0.5,0.2-1.2-0.3-1.5s-1.3-0.2-1.6,0.3l-1.2,1.7
		c-0.5-0.1-1-0.1-1.5-0.1c-0.3,0-0.6,0-0.9,0V1.1c0-0.6-0.5-1.1-1.2-1.1c-0.6,0-1.2,0.5-1.2,1.1V3c-1.1,0.4-2.1,1.1-3.1,1.9
		c-0.7,0.6-1.3,1.4-1.9,2.2c-0.4-0.8-1.3-1.4-2.4-1.4H7.4c-1.5,0-2.7,1.1-2.7,2.5v11.4C4.1,20,3.5,20.5,3,21.1c-2.6,2.8-3.1,6.4-3,9
		C0,33,0.8,36,1.9,37.9c0.2,0.4,0.3,0.9,0.5,1.3c0.8,2.1,1.5,4.2,4.2,7.1c4.2,4.8,10.1,8.2,16.6,9.6l3.1,0.7
		c0.8,0.2,1.7,0.3,2.6,0.3c2.4,0,4.7-0.7,6.7-2.1l0.8-0.5c3.7-2.6,6-6.6,6.3-10.9C42.7,41.7,42.7,39.9,42.4,38.2z M28.1,24.6
		c-0.5-0.3-1.3-0.8-2.5-1.2c0.1-1.1,0.4-3.1,1.5-4.9c0.3,0,0.6-0.1,0.9-0.1c3,0,5.5,2.3,5.5,5.2c0,0.4-0.1,0.9-0.2,1.3
		C31.6,24.5,29.9,24.3,28.1,24.6z M34,10.4v2.1c-2.9,0.1-5.3,1-7.1,2.7c-2.6,2.4-3.3,5.7-3.6,7.6c-1.1-0.3-2.4-0.5-4-0.7
		c-0.4-0.3-0.7-0.6-1.1-0.9v-0.1c0-3,1-5.4,3-7.2C25.1,10.6,31.5,10.3,34,10.4z M21.1,4.6c0.6,0,1.2,0.1,1.7,0.2l0,0
		c1.9,0.5,3.5,1.9,4.8,3.8c-2.7,0.6-5.6,1.6-7.9,3.6c-2.2,1.9-3.4,4.3-3.7,7.3c-1-0.6-1.9-1-2.8-1.3v-6.4c0,0,0-0.1,0.1-0.1
		C14.5,7.5,17.7,4.6,21.1,4.6z M7.1,8.3C7.1,8.1,7.2,8,7.4,8h3.2c0.2,0,0.3,0.1,0.3,0.3v9.6c-0.4,0-0.8,0-1.2,0
		c-0.9,0-1.8,0.2-2.6,0.5C7.1,18.4,7.1,8.3,7.1,8.3z M4.8,22.6C6.3,21,8,20.1,9.8,20c2.3-0.1,5,1.1,7.7,3.5
		c-0.7,1.3-2.7,4.4-6.7,6.1c-4.5,1.9-6.4,4.6-7.2,6.4v0.1C2.1,33.1,1.3,26.4,4.8,22.6z"/>
	<path class="st0" d="M14.8,44.8c-0.5-0.4-1.2-0.3-1.6,0.1c-0.4,0.5-0.3,1.2,0.2,1.6c3.2,2.5,6.9,4.3,10.9,5.2c0.1,0,0.2,0,0.3,0
		c0.5,0,1-0.3,1.1-0.9c0.1-0.6-0.2-1.2-0.9-1.3C21.1,48.7,17.7,47.1,14.8,44.8z"/>
	<path class="st0" d="M10.2,41.9c-0.5,0.4-0.5,1.1-0.1,1.6c0.2,0.3,0.6,0.4,0.9,0.4c0.3,0,0.5-0.1,0.7-0.3c0.5-0.4,0.6-1.1,0.1-1.6
		l0,0C11.5,41.6,10.7,41.5,10.2,41.9z"/>
</g>
</svg>
