<svg width="26" height="20" viewBox="0 0 26 20" fill="none" xmlns="http://www.w3.org/2000/svg">
<path d="M14.6641 19.7158C14.4632 19.7158 14.2621 19.5944 13.9904 19.3556C13.9326 19.3031 13.8637 19.2433 13.7823 19.1746C12.0191 17.6845 10.3175 16.1966 8.43272 14.5438C7.65065 13.8575 6.62588 12.9489 5.63568 12.0039C5.45467 11.8319 5.44945 11.5459 5.62141 11.3648C5.79338 11.1838 6.07945 11.1784 6.26046 11.3504C7.23802 12.2845 8.25353 13.1841 9.02814 13.8648C10.9091 15.5141 12.6091 17.0003 14.3649 18.4847C14.4517 18.5572 14.5242 18.6223 14.5877 18.6768C14.613 18.6984 14.6401 18.722 14.6636 18.7437C14.6925 18.7165 14.7253 18.6894 14.756 18.6605C14.8175 18.606 14.8882 18.541 14.9714 18.4702L15.3334 18.157C17.886 15.943 20.5256 13.653 23.0636 11.3412C24.2891 10.2242 24.9408 8.7252 24.8974 7.11944C24.8556 5.51734 24.0936 3.99315 22.8083 2.93948C21.1519 1.58187 18.4871 1.02418 16.264 2.83643C15.7897 3.22375 14.8573 4.05101 14.8483 4.05827C14.7559 4.13983 14.6312 4.17961 14.5098 4.17057C14.3869 4.15972 14.2726 4.10005 14.1948 4.00402C14.1514 3.94978 14.1026 3.88811 14.0574 3.83568C12.5782 2.07605 10.909 1.41535 8.95394 1.81531C6.71999 2.27153 5.27742 3.59484 4.66727 5.74738C4.3812 6.75749 4.35046 7.72054 4.57486 8.61314C4.63633 8.85561 4.48968 9.1001 4.2472 9.16157C4.00633 9.22324 3.76023 9.0766 3.69856 8.83391C3.43439 7.78585 3.46874 6.66507 3.7984 5.50109C4.49891 3.0319 6.21858 1.4515 8.77474 0.930164C10.9831 0.479361 12.9404 1.20157 14.5949 3.0771C14.9153 2.79465 15.386 2.38564 15.6902 2.1375C17.9221 0.318215 21.083 0.361621 23.3782 2.24257C24.8663 3.46261 25.748 5.23145 25.797 7.09594C25.8458 8.94253 25.0692 10.7329 23.6679 12.011C21.1226 14.3319 18.4778 16.6236 15.9218 18.8412L15.56 19.1542C15.4802 19.2231 15.4131 19.2828 15.3552 19.3354C15.0764 19.5887 14.8701 19.7155 14.6638 19.7155L14.6641 19.7158Z" fill="#014494"/>
<path d="M12.1173 14.1414C12.1029 14.1414 12.0866 14.1414 12.0719 14.1396C11.8765 14.1197 11.7171 13.9785 11.6756 13.7867L10.1801 6.97082L9.46151 10.3452C9.41812 10.5535 9.2333 10.7038 9.01975 10.7038H0.65232C0.402608 10.7038 0.199707 10.5009 0.199707 10.2512C0.199707 10.0013 0.402608 9.79858 0.65232 9.79858H8.65358L9.73276 4.73687C9.77796 4.52875 9.96077 4.38029 10.1745 4.37848C10.3989 4.38933 10.5709 4.52513 10.6181 4.73325L12.2634 12.2387L13.2212 10.0665C13.2936 9.90177 13.4565 9.7967 13.6357 9.7967H21.9249C22.1749 9.7967 22.3776 9.9994 22.3776 10.2493C22.3776 10.4992 22.1749 10.7019 21.9249 10.7019H13.9288L12.5314 13.87C12.4571 14.0384 12.2942 14.1414 12.1168 14.1414L12.1173 14.1414Z" fill="#014494"/>
</svg>
