<svg width="18" height="22" viewBox="0 0 18 22" fill="none" xmlns="http://www.w3.org/2000/svg">
<path d="M5.47644 10.19H6.50676V8.23293H8.64107V7.28819H6.50676V5.33115H5.47644V7.28819H3.34212V8.23293H5.47644V10.19ZM14.8235 2.42943H13.428L13.0658 1.43065H13.0661C12.9144 1.01393 12.624 0.651446 12.2352 0.394777C11.8467 0.137855 11.3796 -0.000240312 10.9008 3.14881e-07H6.38194C5.90304 -0.000240682 5.43593 0.137861 5.04748 0.394777C4.65873 0.651458 4.36827 1.01393 4.2166 1.43065L3.8544 2.42943H2.45925C1.85418 2.42967 1.2741 2.6502 0.846412 3.04257C0.418499 3.4347 0.177997 3.96664 0.177734 4.52144V19.908C0.177997 20.4628 0.418499 20.9947 0.846412 21.3869C1.27406 21.7792 1.85419 21.9998 2.45925 22H14.8235C15.4285 21.9998 16.0086 21.7792 16.4363 21.3869C16.8642 20.9947 17.1047 20.4628 17.105 19.908V4.52144C17.1047 3.96663 16.8642 3.43473 16.4363 3.04257C16.0087 2.6502 15.4285 2.42967 14.8235 2.42943H14.8235ZM5.19517 1.72902C5.27797 1.5003 5.43699 1.30171 5.65015 1.16096C5.86306 1.01996 6.11907 0.944529 6.38165 0.94477H10.9005C11.163 0.944529 11.4193 1.02021 11.6325 1.16096C11.8457 1.30171 12.0052 1.5003 12.0883 1.72902L12.3414 2.42943H4.94101L5.19517 1.72902ZM16.0743 19.9075C16.0741 20.2116 15.9421 20.5033 15.7074 20.7183C15.473 20.9335 15.1549 21.0545 14.8232 21.0547H2.45895C2.12724 21.0545 1.8092 20.9335 1.57471 20.7183C1.33999 20.5033 1.20805 20.2117 1.20778 19.9075V4.52091C1.20805 4.21675 1.33999 3.92513 1.57471 3.71012C1.80917 3.4949 2.12721 3.37391 2.45895 3.37367H14.8232C15.1549 3.37391 15.4729 3.4949 15.7074 3.71012C15.9421 3.92511 16.0741 4.21673 16.0743 4.52091V19.9075ZM9.52423 9.85234H13.94V8.90761H9.52423V9.85234ZM3.34212 13.0916H13.94V12.1468H3.34212V13.0916ZM3.34212 16.3308H13.94V15.386H3.34212V16.3308Z" fill="#014494"/>
</svg>
