<?xml version="1.0" encoding="utf-8"?>
<!-- Generator: Adobe Illustrator 23.0.1, SVG Export Plug-In . SVG Version: 6.00 Build 0)  -->
<svg version="1.1" id="Layer_1" xmlns="http://www.w3.org/2000/svg" xmlns:xlink="http://www.w3.org/1999/xlink" x="0px" y="0px"
	 viewBox="0 0 34.1 36.3" enable-background="new 0 0 34.1 36.3" xml:space="preserve">
<g>
	<path fill="#0087DF" d="M25.1,1.2c3.7,0,7.4,3.3,7.8,7.6c0.4,3.1-0.6,5.6-2.7,7.8c-4.6,4.7-9.1,9.6-13.7,14.4
		c-0.4,0.5-0.7,1-0.4,1.7c0.3,0.5,0.7,0.7,1.2,0.6c0.6-0.1,1.2-1,1-1.5l-0.2-0.4l1.5-1.4c0.3,0.4,0.5,0.7,0.7,1.1
		c0.3,0.7,0.3,1.5-0.1,2.2c-0.3,0.7-0.8,1.3-1.5,1.7c-0.7,0.4-1.4,0.5-2.2,0.4s-1.5-0.5-1.9-1.1c-1.1-1.2-1.1-3-0.1-4.2
		c0.4-0.4,1-1.2,1-1.2s-0.6-0.8-1-1.1c-3.3-3.6-6.6-7-9.8-10.4c-1.7-1.7-3-3.5-3.3-6C0.6,7.8,2.5,3.8,6,2.1c3.1-1.7,7-1,9.7,1.7
		c0.3,0.3,0.5,0.5,0.5,0.5l-1.6,1.4c0,0-0.3-0.3-0.5-0.5c-1.7-1.8-3.8-2.4-6.1-1.6c-2.5,0.8-4,2.6-4.5,5.2c-0.4,2.4,0.2,4.4,1.8,6.1
		c3.8,4,7.6,8,11.4,11.9c0.2,0.2,0.4,0.4,0.4,0.4s0.2-0.2,0.4-0.4c4-4.1,8-8.3,11.9-12.5c1.9-2.1,2.1-4.7,0.9-7.4
		c-1.1-2.5-3.2-3.8-5.9-3.8c-0.8,0-1.6,0.2-2.3,0.4c-0.7,0.4-1.4,0.8-1.9,1.4C19.7,5.7,18.6,7,18.6,7s1.1,0.9,1.5,1.4
		c0.8,0.9,1.6,1.8,1.9,3c0.3,1.1,0.2,2.3-0.3,3.3c-0.4,1.1-1.3,1.9-2.3,2.5c-2.1,1.1-4.7,0.6-6.2-1.1c-1.6-1.8-1.8-4.6-0.2-6.4
		c1.9-2.2,4-4.4,6.1-6.3C20.6,1.8,22.5,1.2,25.1,1.2z M20,12.6c0-0.5-0.1-1.1-0.4-1.5c-0.7-1-1.5-1.7-2.3-2.5
		C17.2,8.5,17,8.3,17,8.3s-0.1,0.2-0.2,0.3c-0.7,0.7-1.4,1.4-2,2.2c-0.9,1.1-0.9,2.5-0.1,3.6c0.4,0.5,0.9,0.9,1.5,1.1
		c0.6,0.3,1.2,0.2,1.8,0c0.6-0.2,1.1-0.6,1.5-1.1C19.9,13.8,20.1,13.2,20,12.6L20,12.6z"/>
</g>
</svg>
