<svg width="64" height="48" viewBox="0 0 64 48" fill="none" xmlns="http://www.w3.org/2000/svg">
<path d="M63.7071 17.153L46.7069 0.279651C46.3318 -0.0925552 45.6677 -0.0925552 45.2927 0.279651L39.127 6.39982L38.0221 7.39277C36.5934 8.67564 35.2682 8.80546 33.5905 8.97033C32.6832 9.05906 31.7457 9.15107 30.7217 9.43802C29.9394 9.65697 29.2451 9.89538 28.6197 10.1515L18.7073 0.279155C18.3323 -0.0930516 17.6682 -0.0930516 17.2932 0.279155L0.292954 17.153C-0.0976515 17.5407 -0.0976515 18.1688 0.292954 18.5566L6.48495 24.7024C6.67245 24.8885 6.92685 24.9932 7.19196 24.9932C7.45706 24.9932 7.71147 24.8885 7.89897 24.7024L8.62318 23.9835L10.914 26.2959C10.7092 26.4282 10.5157 26.5804 10.3395 26.7553L10.195 26.8988C9.47329 27.6151 9.07539 28.5698 9.07539 29.5886C9.07539 30.6073 9.47289 31.5631 10.1945 32.2793C10.9421 33.0208 11.9235 33.392 12.9049 33.392C12.9566 33.392 13.0076 33.3794 13.0592 33.3773C13.0544 33.456 13.0363 33.5317 13.0363 33.6111C13.0363 34.6298 13.4339 35.5846 14.156 36.3018C14.9031 37.0433 15.8845 37.4145 16.866 37.4145C16.9317 37.4145 16.9965 37.3993 17.0621 37.396C17.0589 37.4607 17.0432 37.5227 17.0432 37.588C17.0432 38.6068 17.4407 39.5615 18.1628 40.2788C18.9099 41.0203 19.8913 41.3915 20.8733 41.3915C20.9389 41.3915 21.0035 41.3762 21.0689 41.3729C21.0657 41.4377 21.05 41.4998 21.05 41.565C21.05 42.5838 21.4479 43.5395 22.1696 44.2557C22.9167 44.9972 23.8981 45.3685 24.8796 45.3685C25.8615 45.3685 26.8436 44.9972 27.5911 44.2547L27.8616 43.9862C28.0086 43.8403 28.1327 43.6785 28.2522 43.5143L31.6877 46.9086C32.4201 47.6355 33.383 48 34.345 48C35.3069 48 36.2688 47.6365 37.0012 46.9096C37.7741 46.1419 38.1274 45.1212 38.0846 44.1141C38.1361 44.1161 38.1869 44.1287 38.2385 44.1287C39.2004 44.1287 40.1624 43.7652 40.8948 43.0382C41.6028 42.3365 41.9925 41.4001 41.9925 40.4008C41.9925 40.3472 41.9793 40.2963 41.9771 40.2431C42.0306 40.2454 42.0835 40.2583 42.1371 40.2583C43.1 40.2583 44.0629 39.8948 44.7953 39.1679C45.5684 38.4001 45.9215 37.3793 45.8787 36.3719C45.9319 36.3742 45.9843 36.387 46.0375 36.387C47.0005 36.387 47.9624 36.0235 48.6948 35.2965C50.1565 33.8457 50.1584 31.4874 48.7031 30.0328L55.1004 23.7089L56.1011 24.7022C56.2886 24.8883 56.5425 24.993 56.8081 24.993C57.0737 24.993 57.3276 24.8883 57.5151 24.7022L63.7066 18.5564C64.0977 18.1689 64.0977 17.5407 63.7071 17.153ZM2.41419 17.8547L18.0003 2.38445L22.7782 7.12666L7.19206 22.5971L2.41419 17.8547ZM11.6086 30.8757C11.2648 30.5345 11.0754 30.077 11.0754 29.5895C11.0754 29.1009 11.2649 28.6435 11.6091 28.3022L11.7536 28.1588C12.0978 27.8167 12.5583 27.6286 13.05 27.6286C13.5423 27.6286 14.0022 27.8167 14.3465 28.1588C14.6907 28.5001 14.8802 28.9575 14.8802 29.4451C14.8802 29.9335 14.6909 30.3898 14.3467 30.732L14.2019 30.8757C13.4875 31.5853 12.3239 31.5852 11.6086 30.8757ZM15.5701 34.8982C15.2259 34.5561 15.0364 34.0995 15.0364 33.611C15.0364 33.1235 15.2259 32.666 15.5701 32.3247L15.6159 32.2793L15.616 32.2792L15.7605 32.1358C15.7606 32.1357 15.7606 32.1356 15.7607 32.1356L17.6936 30.2167C18.051 29.8619 18.5207 29.6846 18.99 29.6846C19.4597 29.6846 19.929 29.8619 20.2865 30.2167C20.6303 30.5588 20.8202 31.0154 20.8202 31.5039C20.8202 31.9914 20.6307 32.4489 20.2865 32.7902L18.1629 34.8983C17.4485 35.6088 16.2855 35.6078 15.5701 34.8982ZM19.577 38.8753C19.2332 38.5331 19.0433 38.0766 19.0433 37.588C19.0433 37.1005 19.2328 36.643 19.577 36.3018L20.8388 35.0505C21.1826 34.7084 21.6425 34.5203 22.1347 34.5203C22.6264 34.5203 23.0868 34.7084 23.4311 35.0505C24.1455 35.76 24.1455 36.9144 23.4306 37.624L22.4404 38.6068L22.1699 38.8753C21.4555 39.5848 20.2924 39.5848 19.577 38.8753ZM26.4472 42.5838L26.1767 42.8522C25.4619 43.5627 24.2988 43.5617 23.5839 42.8522C23.2397 42.511 23.0502 42.0535 23.0502 41.565C23.0502 41.0783 23.2392 40.6215 23.5829 40.2795C23.5832 40.2792 23.5836 40.279 23.5839 40.2788L23.8581 40.0067C24.2152 39.6538 24.6834 39.4772 25.1517 39.4772C25.6209 39.4772 26.0902 39.6545 26.4476 40.0093C26.7919 40.3514 26.9814 40.808 26.9814 41.2965C26.9814 41.7841 26.7919 42.2415 26.4476 42.5828C26.4477 42.5828 26.4472 42.5828 26.4472 42.5838ZM47.2811 33.8931C46.5946 34.5735 45.4802 34.5735 44.7956 33.8931L41.2311 30.3561C40.8405 29.9684 40.2077 29.9684 39.8169 30.3561C39.4262 30.7438 39.4263 31.3719 39.8169 31.7597L43.3815 35.2966C44.067 35.977 44.0661 37.084 43.3815 37.7644C42.696 38.4448 41.5807 38.4448 40.8952 37.7644L37.3316 34.2265C36.941 33.8388 36.3082 33.8388 35.9175 34.2265C35.5268 34.6142 35.5269 35.2422 35.9175 35.63L39.481 39.168C39.8111 39.4956 39.9927 39.9337 39.9927 40.4009C39.9927 40.8691 39.8111 41.3072 39.481 41.6349C38.8009 42.3108 37.6991 42.3124 37.0132 41.6491C37.0087 41.6446 37.0059 41.6392 37.0015 41.6349L33.438 38.0979C33.242 37.9034 32.9848 37.8069 32.7279 37.8077C32.4711 37.807 32.214 37.9034 32.0179 38.0979C31.6273 38.4856 31.6273 39.1137 32.0179 39.5015L35.5815 43.0384C35.5869 43.0438 35.5935 43.0473 35.599 43.0526C36.2703 43.7341 36.2675 44.8303 35.5873 45.5062C34.9037 46.1847 33.7894 46.1857 33.0999 45.5033L28.969 41.4212C28.9703 41.3791 28.9812 41.339 28.9812 41.2966C28.9812 40.2779 28.5837 39.3231 27.8616 38.6059C27.2673 38.0158 26.5237 37.6708 25.7508 37.5502C26.1994 36.2233 25.9075 34.7017 24.8449 33.647C24.2452 33.0518 23.4554 32.7188 22.6355 32.6182C22.7456 32.2601 22.82 31.8895 22.82 31.5039C22.82 30.4852 22.4225 29.5304 21.7004 28.8132C20.3462 27.4695 18.2298 27.3562 16.731 28.4474C16.5586 27.8144 16.2386 27.2299 15.7608 26.7554C15.0549 26.0548 14.0875 25.7019 13.1147 25.6865L10.0372 22.58L24.1875 8.53499L26.7384 11.0873C25.1772 12.0187 24.102 13.1049 22.9355 14.2887C22.6933 14.5345 22.4453 14.7865 22.185 15.0447L20.9921 16.2292C20.2636 16.9523 19.8621 17.9168 19.8621 18.9447C19.8621 19.9726 20.2636 20.9375 20.9921 21.6601C21.7201 22.3832 22.6918 22.7816 23.7279 22.7821C23.7279 22.7821 23.7279 22.7821 23.7284 22.7821C24.764 22.7821 25.7352 22.3837 26.4638 21.6606L29.5552 18.5923C30.3584 17.797 31.5064 18.35 34.1305 19.9048C35.1475 20.5074 36.3099 21.1891 37.6099 21.7976L47.2811 31.4262C47.9666 32.1067 47.9666 33.2127 47.2811 33.8931ZM47.2916 28.6252L41.8464 23.2034C42.7187 23.3712 43.6272 23.4824 44.5895 23.4824C44.8756 23.4824 45.1666 23.4737 45.4616 23.4557C46.0124 23.4223 46.4323 22.9517 46.3981 22.4045C46.3649 21.8573 45.9137 21.4367 45.3385 21.4745C41.11 21.7309 37.8101 19.7733 35.1548 18.2003C32.5688 16.6679 30.1235 15.2197 28.141 17.1888L25.0496 20.2571C24.699 20.6051 24.2298 20.797 23.7278 20.797C23.2263 20.797 22.7571 20.605 22.406 20.2566C22.0549 19.9082 21.8621 19.4424 21.8621 18.9447C21.8621 18.4469 22.0555 17.9812 22.406 17.6327L23.5989 16.4482C23.8645 16.1846 24.1179 15.9277 24.365 15.6767C26.2586 13.7551 27.6263 12.367 31.2645 11.3484C32.1185 11.1095 32.9662 11.0261 33.7866 10.9456C35.5864 10.7692 37.4468 10.5865 39.3637 8.86402L39.7733 8.49609L53.686 22.3048L47.2916 28.6252ZM56.8085 22.5971L55.8143 21.6103C55.813 21.609 55.8127 21.6072 55.8114 21.606C55.8101 21.6048 55.8083 21.6044 55.807 21.6031L41.2224 7.12716L45.9997 2.38495L61.586 17.8547L56.8085 22.5971Z" fill="#0087DF"/>
</svg>
