<svg width="54" height="58" viewBox="0 0 54 58" fill="none" xmlns="http://www.w3.org/2000/svg">
<path d="M32.9421 13.9907C27.848 12.0692 22.4774 12.6634 18.2052 15.6172C14.0251 18.5085 11.5293 23.2677 11.5293 28.3466C11.5293 30.8844 12.1572 33.4001 13.3436 35.6208C13.9192 36.6992 14.5712 37.6641 15.2802 38.4867C15.6062 38.8649 15.9638 39.1751 16.3098 39.4756C16.7032 39.8167 17.0739 40.1386 17.3194 40.5004C17.4824 40.7397 17.611 41.0444 17.7478 41.3676C18.0415 42.0636 18.3654 43.4625 18.679 44.8159C19.027 46.3207 19.3558 47.7423 19.7196 48.6026C20.0538 49.3928 21.0696 51.7992 23.8041 51.7992H30.1932C31.9579 51.7992 33.5157 50.6851 34.0824 49.0222C34.4833 48.0669 34.8513 46.5683 35.2398 44.9824C35.592 43.545 35.9565 42.0595 36.29 41.2713C36.4076 40.9948 36.5183 40.7328 36.6552 40.5444C36.7487 40.4158 36.8863 40.2789 37.0307 40.1345C41.4783 35.6992 43.133 31.0749 42.2362 25.5833C41.3704 20.2664 37.8079 15.8242 32.9421 13.9907ZM35.5748 38.673C35.3884 38.8587 35.1772 39.0692 34.9888 39.3285C34.7123 39.7081 34.5418 40.1097 34.3912 40.4646C33.9923 41.4061 33.625 42.904 33.2364 44.4899C32.8795 45.9466 32.5102 47.4527 32.1691 48.2491C32.1574 48.2766 32.1464 48.3048 32.1374 48.3337C31.8623 49.1721 31.0811 49.7353 30.1939 49.7353H28.0309V40.6826L32.9442 36.5885C33.3816 36.224 33.4407 35.5727 33.0762 35.136C32.7117 34.6979 32.0611 34.6394 31.623 35.0039L26.9993 38.8567L22.3757 35.0039C21.9376 34.6401 21.2876 34.6986 20.9225 35.136C20.558 35.5734 20.6171 36.224 21.0545 36.5885L25.9677 40.6819V49.7353H23.8048C23.1294 49.7353 22.3413 49.5049 21.6205 47.7987C21.3268 47.1027 21.0029 45.7038 20.6893 44.3503C20.3413 42.8456 20.0126 41.424 19.6488 40.5636C19.4871 40.1813 19.3042 39.7473 19.0264 39.3401C18.6295 38.7563 18.1158 38.3106 17.6626 37.9172C17.3586 37.6531 17.0718 37.4042 16.8435 37.1394C16.2417 36.4413 15.6612 35.5803 15.164 34.6491C14.1365 32.7255 13.5932 30.546 13.5932 28.3466C13.5932 23.9451 15.7561 19.8207 19.3799 17.3146C21.6466 15.7465 24.2766 14.9481 26.9966 14.9481C28.7235 14.9481 30.4862 15.2699 32.2145 15.9212C36.3918 17.4961 39.4522 21.3248 40.2012 25.9148C40.9921 30.7599 39.565 34.6938 35.5748 38.673Z" fill="#0087DF"/>
<path d="M31.4038 55.0193H22.598C22.0279 55.0193 21.5664 55.4814 21.5664 56.0509C21.5664 56.6203 22.0279 57.0825 22.598 57.0825H31.4045C31.9747 57.0825 32.4361 56.6203 32.4361 56.0509C32.4361 55.4814 31.974 55.0193 31.4038 55.0193Z" fill="#0087DF"/>
<path d="M27.0004 7.62773C27.5705 7.62773 28.032 7.16557 28.032 6.59612V1.03161C28.032 0.462161 27.5705 0 27.0004 0C26.4302 0 25.9688 0.462161 25.9688 1.03161V6.59612C25.9688 7.16557 26.4302 7.62773 27.0004 7.62773Z" fill="#0087DF"/>
<path d="M15.9646 10.0919C16.1558 10.4213 16.5017 10.6056 16.858 10.6056C17.0333 10.6056 17.2115 10.5609 17.3745 10.4667C17.8676 10.1806 18.0354 9.54924 17.7493 9.05613L14.7328 3.85475C14.4467 3.36233 13.8161 3.19452 13.323 3.47993C12.8299 3.76603 12.6621 4.39738 12.9482 4.89049L15.9646 10.0919Z" fill="#0087DF"/>
<path d="M3.72614 14.9186L8.94334 17.9082C9.10496 18.001 9.28102 18.0444 9.45502 18.0444C9.81265 18.0444 10.1606 17.858 10.3511 17.5258C10.6345 17.0313 10.4632 16.4007 9.96876 16.1173L4.75156 13.1277C4.25846 12.8443 3.62711 13.0156 3.34376 13.5101C3.06041 14.0046 3.23166 14.6352 3.72614 14.9186Z" fill="#0087DF"/>
<path d="M7.62773 27.0007C7.62773 26.4313 7.16625 25.9691 6.59612 25.9691H1.03161C0.461474 25.9691 0 26.4313 0 27.0007C0 27.5702 0.461474 28.0323 1.03161 28.0323H6.59612C7.16625 28.0323 7.62773 27.5702 7.62773 27.0007Z" fill="#0087DF"/>
<path d="M8.96007 36.2543L3.74768 39.2529C3.25388 39.5369 3.08401 40.1676 3.36805 40.6614C3.55924 40.9929 3.90586 41.1786 4.26349 41.1786C4.43748 41.1786 4.61492 41.1345 4.77723 41.041L9.98961 38.0425C10.4834 37.7584 10.6533 37.1278 10.3692 36.634C10.0838 36.1402 9.45455 35.9696 8.96007 36.2543Z" fill="#0087DF"/>
<path d="M36.7557 10.5424C36.92 10.6394 37.1009 10.6855 37.279 10.6855C37.6318 10.6855 37.9757 10.5039 38.1683 10.1786L41.2253 5.00061C41.5148 4.50956 41.3525 3.87753 40.8615 3.5873C40.3718 3.29914 39.7391 3.46076 39.4488 3.95112L36.3918 9.12912C36.1016 9.62016 36.2646 10.2522 36.7557 10.5424Z" fill="#0087DF"/>
<path d="M44.6562 18.2429C44.8261 18.2429 44.9987 18.2003 45.1575 18.1122L50.4084 15.1818C50.9064 14.9046 51.0838 14.276 50.8066 13.7781C50.5281 13.2815 49.9016 13.102 49.403 13.3806L44.1521 16.311C43.6541 16.5882 43.4767 17.2168 43.7539 17.7147C43.943 18.0524 44.2937 18.2429 44.6562 18.2429Z" fill="#0087DF"/>
<path d="M52.9692 25.969H47.4047C46.8345 25.969 46.373 26.4312 46.373 27.0006C46.373 27.5701 46.8345 28.0322 47.4047 28.0322H52.9692C53.5393 28.0322 54.0008 27.5701 54.0008 27.0006C54.0008 26.4312 53.5393 25.969 52.9692 25.969Z" fill="#0087DF"/>
<path d="M50.2217 39.312L45.0175 36.3004C44.523 36.0129 43.8931 36.1828 43.6077 36.6766C43.3223 37.1697 43.4907 37.801 43.9839 38.0858L49.188 41.0974C49.351 41.1923 49.5284 41.2363 49.7038 41.2363C50.06 41.2363 50.4067 41.0513 50.5979 40.7212C50.8833 40.2281 50.7148 39.5967 50.2217 39.312Z" fill="#0087DF"/>
</svg>
