<svg width="48" height="46" viewBox="0 0 48 46" fill="none" xmlns="http://www.w3.org/2000/svg">
<path d="M2.54457 45.0119C2.24603 45.0119 1.96361 44.854 1.81072 44.5882C1.63004 44.2764 1.66618 43.885 1.90079 43.6109C4.34918 40.7566 5.68068 38.0909 6.3745 36.318H5.19867C2.3322 36.318 0 33.9858 0 31.1198V5.89092C0 3.02501 2.33165 0.693359 5.19867 0.693359H42.8019C45.6678 0.693359 48 3.02501 48 5.89092V31.1198C48 33.9852 45.6684 36.318 42.8019 36.318H17.0743C13.0186 42.971 3.13054 44.9157 2.70191 44.9969C2.6502 45.0074 2.59683 45.0119 2.54457 45.0119ZM5.19867 2.39011C3.26731 2.39011 1.69675 3.96067 1.69675 5.89147V31.1204C1.69675 33.0512 3.26731 34.6218 5.19867 34.6218H7.57646C7.84554 34.6218 8.10072 34.7502 8.26028 34.9698C8.41983 35.1883 8.46542 35.469 8.38425 35.7275C7.83609 37.4471 6.78368 39.9222 4.78227 42.6941C7.95506 41.7001 13.4278 39.4229 15.8445 35.0587C15.9935 34.7891 16.2776 34.6218 16.5862 34.6218H42.8008C44.7316 34.6218 46.3021 33.0512 46.3021 31.1204V5.89147C46.3021 3.96067 44.7316 2.39011 42.8008 2.39011H5.19867Z" fill="#0087DF"/>
<path d="M13.9639 28.2389C13.6803 28.2389 13.4068 28.0966 13.2472 27.8447C13.0204 27.4867 13.0921 27.0175 13.4146 26.7439C15.1541 25.2685 16.0159 22.6044 16.4289 20.6763H15.6601C14.2574 20.6763 13.1155 19.5344 13.1155 18.1312V14.0316C13.1155 12.6284 14.2574 11.4871 15.6601 11.4871H19.7591C21.1617 11.4871 22.3036 12.6284 22.3036 14.0316V18.1312C22.3036 18.3324 22.2753 18.5398 22.2169 18.7622C21.3769 24.8949 14.6026 28.0321 14.313 28.1627C14.2007 28.2144 14.0817 28.2389 13.9639 28.2389ZM15.6601 13.1833C15.1919 13.1833 14.8122 13.5641 14.8122 14.0311V18.1306C14.8122 18.5982 15.1925 18.979 15.6601 18.979H17.453C17.702 18.979 17.9394 19.0885 18.1001 19.2787C18.2608 19.4688 18.3303 19.7195 18.2902 19.9653C18.074 21.2751 17.7104 22.8201 17.0972 24.285C18.6577 22.9162 20.2199 20.9643 20.5429 18.4842C20.5491 18.4431 20.5563 18.4019 20.5685 18.3619C20.5952 18.2663 20.6074 18.1935 20.6074 18.1306V14.0311C20.6074 13.5635 20.2272 13.1833 19.7596 13.1833H15.6601Z" fill="#0087DF"/>
<path d="M26.5433 28.2389C26.2609 28.2389 25.9868 28.0971 25.8273 27.8447C25.6005 27.4867 25.6722 27.0175 25.9952 26.7439C27.7331 25.269 28.5959 22.6044 29.0095 20.6763H28.2401C26.8374 20.6763 25.6955 19.5344 25.6955 18.1312V14.0316C25.6955 12.6284 26.8374 11.4871 28.2401 11.4871H32.3391C33.7423 11.4871 34.8837 12.6284 34.8837 14.0316V18.1312C34.8837 18.333 34.8548 18.5404 34.7969 18.7628C33.9569 24.8949 27.1821 28.0321 26.8941 28.1627C26.7807 28.2144 26.6612 28.2389 26.5433 28.2389ZM28.2401 13.1833C27.772 13.1833 27.3912 13.5641 27.3912 14.0311V18.1306C27.3912 18.5982 27.7725 18.979 28.2401 18.979H30.0336C30.2821 18.979 30.5184 19.0885 30.6802 19.2787C30.8414 19.4688 30.9103 19.7195 30.8708 19.9653C30.6546 21.2751 30.2904 22.8201 29.6767 24.285C31.2367 22.9162 32.8 20.9643 33.123 18.4842C33.1285 18.4425 33.1369 18.4014 33.1474 18.3614C33.1758 18.2663 33.1875 18.1935 33.1875 18.1306V14.0311C33.1875 13.5635 32.8067 13.1833 32.3397 13.1833H28.2401Z" fill="#0087DF"/>
</svg>
