<svg width="26" height="26" viewBox="0 0 26 26" fill="none" xmlns="http://www.w3.org/2000/svg">
<path d="M24.71 18.9686V22.5816C24.7114 22.917 24.6428 23.249 24.5085 23.5563C24.3743 23.8636 24.1775 24.1395 23.9307 24.3662C23.6838 24.593 23.3924 24.7656 23.0751 24.873C22.7577 24.9805 22.4215 25.0204 22.0878 24.9902C18.3865 24.5875 14.8311 23.3212 11.7073 21.293C8.80103 19.4439 6.33702 16.9769 4.49025 14.067C2.45742 10.9252 1.19235 7.34809 0.797529 3.62554C0.76747 3.29251 0.807001 2.95685 0.913603 2.63995C1.02021 2.32305 1.19154 2.03185 1.41671 1.78488C1.64188 1.53791 1.91594 1.34059 2.22144 1.20548C2.52695 1.07037 2.8572 1.00043 3.19118 1.00012H6.79971C7.38345 0.994364 7.94937 1.20133 8.39198 1.58245C8.83459 1.96356 9.12369 2.49281 9.20539 3.07155C9.3577 4.22778 9.64016 5.36305 10.0474 6.4557C10.2092 6.88675 10.2442 7.35522 10.1483 7.8056C10.0524 8.25597 9.8295 8.66938 9.5061 8.99682L7.97849 10.5263C9.6908 13.5414 12.1842 16.0378 15.1955 17.7522L16.7231 16.2228C17.0502 15.899 17.4631 15.6758 17.9129 15.5798C18.3627 15.4837 18.8306 15.5188 19.2611 15.6808C20.3524 16.0885 21.4863 16.3713 22.6411 16.5238C23.2254 16.6064 23.759 16.901 24.1405 17.3518C24.522 17.8026 24.7247 18.378 24.71 18.9686Z" stroke="#014494" stroke-width="1.5" stroke-linecap="round" stroke-linejoin="round"/>
</svg>
