<svg width="41" height="54" viewBox="0 0 41 54" fill="none" xmlns="http://www.w3.org/2000/svg">
<path d="M35.9605 1C38.0437 1 39.7374 3.20761 39.7374 5.92298V34.055C39.7374 36.7704 38.0437 38.978 35.9605 38.978H29.495L30.5407 52.2528C30.5971 52.8366 29.9234 53.2516 29.6133 52.8243L18.9566 38.9781H4.6656C2.58236 38.9781 0.888672 36.77 0.888672 34.0551V5.92308C0.888672 3.20771 2.58236 1.0001 4.6656 1.0001L35.9605 1ZM35.9605 2.40648H4.66512C3.16115 2.40648 1.96724 3.96266 1.96724 5.92298V34.055C1.96724 36.0153 3.16115 37.5715 4.66512 37.5715H19.1759C19.3185 37.5646 19.4611 37.6397 19.5635 37.7692L29.3096 50.4512L28.3483 38.3412C28.3201 37.9516 28.5877 37.5704 28.8881 37.5719H35.9605C37.4645 37.5719 38.6584 36.0157 38.6584 34.0554V5.92338C38.6584 3.96306 37.4645 2.40648 35.9605 2.40648ZM32.1836 10.143C32.4817 10.143 32.7233 10.458 32.7233 10.8465C32.7233 11.2351 32.4817 11.55 32.1836 11.55H8.44225C8.14415 11.55 7.90252 11.2351 7.90252 10.8465C7.90252 10.458 8.14415 10.143 8.44225 10.143H32.1836ZM32.1836 19.2861C32.4817 19.2861 32.7233 19.601 32.7233 19.9896C32.7233 20.3781 32.4817 20.6931 32.1836 20.6931H8.44225C8.14415 20.6931 7.90252 20.3781 7.90252 19.9896C7.90252 19.601 8.14415 19.2861 8.44225 19.2861H32.1836ZM32.1836 28.4291C32.4817 28.4291 32.7233 28.7441 32.7233 29.1326C32.7233 29.5212 32.4817 29.8361 32.1836 29.8361H8.44225C8.14415 29.8361 7.90252 29.5212 7.90252 29.1326C7.90252 28.7441 8.14415 28.4291 8.44225 28.4291H32.1836Z" fill="white" stroke="white"/>
</svg>
