<?xml version="1.0" encoding="utf-8"?>
<!-- Generator: Adobe Illustrator 23.0.1, SVG Export Plug-In . SVG Version: 6.00 Build 0)  -->
<svg version="1.1" id="Layer_1" xmlns="http://www.w3.org/2000/svg" xmlns:xlink="http://www.w3.org/1999/xlink" x="0px" y="0px"
	 viewBox="0 0 49.9 62" style="enable-background:new 0 0 49.9 62;" xml:space="preserve">
<style type="text/css">
	.st0{fill:#0087DF;}
</style>
<g>
	<path class="st0" d="M9.5,16.9c0.5,0.6,1.3,0.9,1.8,1c0.8,0.2,1.6,0.2,1.7,0.2c0,0,0,0,0,0c0.5,0,0.9-0.4,1-0.9
		c0-0.5-0.4-0.9-0.9-0.9c-0.6,0-1.2-0.1-1.7-0.3c0.9-0.7,1.4-1.7,1.6-2.4c0.1-0.5-0.2-1-0.7-1.1c-0.5-0.1-1,0.2-1.2,0.6
		c-0.1,0.2-0.7,2.2-2.9,2C5.8,15,5,17.3,4.8,18.6c0,0.5,0.3,0.9,0.9,1c0,0,0.1,0,0.1,0c0.5,0,0.9-0.4,0.9-0.8c0-0.1,0.2-1.8,1.3-1.7
		C8.6,17,9,17,9.5,16.9L9.5,16.9z"/>
	<path class="st0" d="M10.9,28.7c0.1-0.2,0.4-0.3,0.6-0.4c0,0,0,0,0,0c2.6-0.7,3.3-3.1,3.3-4.3c0-0.5-0.4-0.9-0.9-0.9h0
		c-0.5,0-0.9,0.4-1,0.9c0,0.1,0,1.8-1.5,2.4c-0.9-0.7-1.4-1.5-1.5-1.5c-0.3-0.4-0.9-0.5-1.3-0.3c-0.4,0.3-0.6,0.8-0.3,1.3
		c0,0,0.5,0.7,1.3,1.4c-0.3,0.3-0.4,0.5-0.5,0.8c-0.5,1.3,0.4,2.6,0.5,2.8c0.2,0.3,0.5,0.4,0.8,0.4c0.2,0,0.4,0,0.5-0.2
		c0.4-0.3,0.6-0.8,0.3-1.3C11.1,29.7,10.8,29,10.9,28.7z"/>
	<path class="st0" d="M39.4,18.8c0.1,0,0.1,0,0.2,0c0.4,0,0.8-0.3,0.9-0.7c0-0.1,0.2-1.3-0.5-2.2c-0.3-0.4-1-0.8-2.2-0.7
		c-2.2,0.1-2.8-1.8-2.9-2c-0.1-0.5-0.7-0.8-1.2-0.6c-0.5,0.1-0.8,0.6-0.7,1.1c0.2,0.7,0.7,1.6,1.6,2.4c-0.4,0.2-1,0.3-1.7,0.3
		c-0.5,0-0.9,0.4-0.9,0.9c0,0.5,0.4,0.9,1,0.9c0,0,0,0,0,0c0,0,0.8,0,1.7-0.2c0.5-0.1,1.3-0.4,1.8-1C37,17,37.4,17,37.9,17
		c0.3,0,0.5,0,0.6,0.1c0.1,0.1,0.1,0.5,0.1,0.7C38.6,18.2,38.9,18.7,39.4,18.8L39.4,18.8z"/>
	<path class="st0" d="M37.6,25.9c0.3-0.4,0.2-1-0.3-1.3c-0.4-0.3-1-0.2-1.3,0.3c0,0-0.6,0.8-1.5,1.5c-1.4-0.7-1.5-2.4-1.5-2.4
		c0-0.5-0.4-0.9-1-0.9c-0.5,0-1,0.4-1,0.9c0,1.2,0.7,3.6,3.3,4.3c0,0,0,0,0,0c0,0,0,0,0,0c0.2,0.1,0.5,0.2,0.6,0.3
		c0.1,0.3-0.2,1-0.4,1.3c-0.3,0.4-0.2,1,0.2,1.3c0.2,0.1,0.4,0.2,0.5,0.2c0.3,0,0.6-0.1,0.8-0.4c0.1-0.2,1.1-1.6,0.6-2.9
		c-0.1-0.2-0.2-0.5-0.5-0.7C37.1,26.6,37.6,25.9,37.6,25.9L37.6,25.9z"/>
	<path class="st0" d="M44.5,45.1h-1.9v-1.8c0-0.8-0.7-1.4-1.5-1.4H38c-0.8,0-1.5,0.6-1.5,1.4v1.8h-1.9c-0.8,0-1.5,0.6-1.5,1.4v3
		c0,0.8,0.7,1.4,1.5,1.4h1.9v1.8c0,0.8,0.7,1.4,1.5,1.4h3.1c0.8,0,1.5-0.6,1.5-1.4V51h1.9c0.8,0,1.5-0.6,1.5-1.4v-3
		C46,45.8,45.4,45.1,44.5,45.1z M44.1,49.1h-1.9c-0.8,0-1.5,0.6-1.5,1.4v1.8h-2.3v-1.8c0-0.8-0.7-1.4-1.5-1.4H35V47h1.9
		c0.8,0,1.5-0.6,1.5-1.4v-1.8h2.3v1.8c0,0.8,0.7,1.4,1.5,1.4h1.9V49.1z"/>
	<path class="st0" d="M39.6,38.2c-1.4,0-2.6,0.3-3.8,0.7c0.1-0.6,0.2-1.2,0.3-1.8c3.9-0.8,6.9-4.1,6.8-8.1c0-1.2-0.3-2.3-0.8-3.3
		c0-0.1,0-0.2,0.1-0.3c2.4-1.5,3.8-4.1,3.8-6.8c0-3.4-2.1-6.4-5.5-7.6c-0.1,0-0.2-0.1-0.2-0.3c0-0.2,0-0.5,0-0.7
		c0-1.1-0.3-2.2-0.8-3.2c-0.2-0.4-0.8-0.6-1.3-0.4c-0.5,0.2-0.6,0.8-0.4,1.2c0.4,0.7,0.6,1.5,0.6,2.3c0,0.2,0,0.3,0,0.5
		c-0.1,0.9,0.5,1.8,1.4,2.1c2.6,1,4.3,3.3,4.3,5.9c0,2.1-1.1,4.1-3,5.3c-0.9,0.6-1.2,1.6-0.8,2.5c0.4,0.8,0.6,1.7,0.6,2.6
		c0,3.5-2.9,6.3-6.5,6.4c-1.4,0-2.7-0.3-3.9-1.1c-0.6-0.4-1.3-0.5-1.9-0.2c-0.4,0.1-0.9,0.2-1.3,0.2c-1.9-0.1-3.4-1.6-3.4-3.5v-7.7
		c2.9-0.3,4.3-2.9,4.7-4.4c0.1-0.5-0.2-1-0.7-1.1c-0.5-0.1-1,0.2-1.1,0.7c0,0-0.2,0.9-0.8,1.6c-0.6,0.8-1.2,1.2-2,1.3v-7.6
		c0,0,0,0,0.1,0c0.9,0,1.9-0.3,2.7-1.3c0.9-1.1,2.7-1,2.7-1c0.5,0,1-0.3,1-0.8c0-0.5-0.3-0.9-0.9-1c-0.1,0-2.9-0.2-4.4,1.7
		C24.8,11.9,24.3,12,24,12c0-1.5,0-5.2,0-6.7c0-1.9,1.6-3.5,3.5-3.5h0c1.5,0,2.8,0.8,3.3,2.1C31.2,4.8,32,5.3,33,5.2
		c0.1,0,0.3,0,0.4,0c0.7,0,1.5,0.2,2.1,0.5c0.5,0.2,1,0,1.3-0.4s0-1-0.5-1.2c-0.9-0.4-1.9-0.6-2.9-0.6c-0.2,0-0.4,0-0.5,0
		c-0.1,0-0.2,0-0.3-0.1c-0.8-2-2.8-3.3-5.1-3.3h0C25.7,0,24,0.9,23,2.4C22,0.9,20.4,0,18.5,0h0c-2.3,0-4.2,1.3-5.1,3.3
		c0,0.1-0.1,0.1-0.3,0.1c-0.2,0-0.4,0-0.5,0c-3.9,0-7,3-7,6.7c0,0.2,0,0.5,0,0.7c0,0.1-0.1,0.2-0.2,0.3C2.1,12.3,0,15.3,0,18.7
		c0,2.7,1.4,5.3,3.8,6.8c0.1,0.1,0.1,0.2,0.1,0.3c-0.5,1-0.8,2.2-0.8,3.3c0,3.9,2.9,7.3,6.8,8.1c0.4,1.4,0.5,2.9,0.3,4.4
		c0,0,0,0,0,0l0,0c0,0.5,0.3,0.9,0.8,1c0,0,0.1,0,0.1,0c0.5,0,0.9-0.3,0.9-0.8c0,0,0,0,0,0c0.2-1.5,0.1-3-0.2-4.4
		c0.7,0,1.5-0.1,2.2-0.3l0.9,3.2c0.5,1.7,2.1,2.9,4,3c0.2,1.1,0.3,2.3,0.4,3.5h-2.5c-1.5,0-2.8-0.6-3.7-1.7
		c-0.3-0.4-0.9-0.5-1.3-0.2c-0.4,0.3-0.5,0.9-0.2,1.3c1.3,1.6,3.2,2.4,5.2,2.4h2.6c0.1,3.9-0.3,8-1.3,12.4c-0.1,0.5,0.2,1,0.7,1.1
		c0.5,0.1,1-0.2,1.1-0.7c1.4-6.5,1.7-12.5,0.9-18.1h4.2c-0.8,5.6-0.5,11.5,0.9,18.1c0.1,0.4,0.5,0.7,0.9,0.7c0.1,0,0.1,0,0.2,0
		c0.5-0.1,0.8-0.6,0.7-1.1c-0.9-4.4-1.4-8.5-1.3-12.4c2.9,0,2.6,0,2.7,0c0.2,5.2,4.8,9.4,10.3,9.4c1.7,0,3.5-0.4,5-1.2
		c0.5-0.2,0.6-0.8,0.4-1.2c-0.3-0.4-0.8-0.6-1.3-0.4c-1.2,0.7-2.6,1-4.1,1c-4.6,0-8.4-3.6-8.4-8s3.8-8,8.4-8c4.6,0,8.4,3.6,8.4,8
		c0,1.8-0.6,3.5-1.7,4.9c-0.3,0.4-0.2,1,0.2,1.3c0.4,0.3,1,0.2,1.3-0.2c1.4-1.7,2.1-3.8,2.1-6C49.9,42.6,45.3,38.2,39.6,38.2
		L39.6,38.2z M5,29.1c0-0.9,0.2-1.8,0.6-2.6c0.4-0.9,0.1-2-0.8-2.5c-1.8-1.2-3-3.2-3-5.3c0-2.6,1.7-5,4.3-5.9
		c0.9-0.3,1.5-1.2,1.4-2.1c0-0.2,0-0.3,0-0.5c0-2.7,2.3-4.9,5.1-4.9c0.1,0,0.3,0,0.4,0c1,0.1,1.8-0.4,2.2-1.3
		c0.5-1.3,1.8-2.1,3.3-2.1h0c1.9,0,3.5,1.6,3.5,3.5v3.1c0,0,0,0-0.1,0h0c-0.5,0-0.8-0.2-1.1-0.6c-1.4-1.8-3.7-1-4.8-0.4
		c-0.4,0.3-0.6,0.8-0.3,1.2C16,9.1,16.6,9.2,17,8.9c0,0,1.6-0.9,2.3-0.1c0.8,1,1.8,1.3,2.7,1.3c0,0,0,0,0.1,0v18.5
		c-2.2-0.2-2.8-1.7-2.9-1.9c-0.2-0.5-0.7-0.7-1.2-0.6c-0.5,0.2-0.8,0.7-0.6,1.1c0.4,1.1,1.8,3,4.7,3.1v0.4c0,1.9-1.5,3.4-3.4,3.5
		c-0.4,0-0.9-0.1-1.3-0.2c-0.6-0.2-1.4-0.1-1.9,0.2c-1.1,0.7-2.5,1.1-3.9,1.1C7.9,35.4,5,32.5,5,29.1L5,29.1z M19.2,41.4
		c-1.1,0-2.1-0.7-2.4-1.7l-1-3.4c0.2-0.1,0.4-0.2,0.6-0.3c0.1,0,0.2-0.1,0.2,0c0.6,0.2,1.3,0.3,2,0.3c1.8,0,3.4-1,4.3-2.3
		c1,1.4,2.5,2.3,4.3,2.3c0.7,0,1.4-0.1,2-0.3c0.1,0,0.1,0,0.2,0c0.2,0.1,0.4,0.2,0.6,0.3l-1,3.4c-0.3,1-1.3,1.7-2.4,1.7H19.2z
		 M29.4,46.7c-0.2,0-0.1,0-2.7,0c0.1-1.2,0.2-2.3,0.4-3.5c1.9-0.1,3.5-1.3,4-3l0.9-3.2c0.7,0.2,1.4,0.3,2.2,0.3
		c-0.2,0.9-0.3,1.7-0.3,2.6C31.4,41.4,29.8,43.9,29.4,46.7L29.4,46.7z"/>
</g>
</svg>
