<svg width="57" height="32" viewBox="0 0 57 32" fill="none" xmlns="http://www.w3.org/2000/svg">
<path d="M17.5813 13.3026C17.5813 16.5252 14.9587 19.1482 11.7363 19.1482C8.51374 19.1482 5.89062 16.5251 5.89062 13.3026C5.89062 10.0802 8.51418 7.45752 11.7363 7.45752C14.9583 7.45752 17.5813 10.0801 17.5813 13.3026Z" stroke="#0087DF" stroke-width="2"/>
<path d="M15.0177 22.0447C14.7671 22.0209 14.5135 22.0081 14.2568 22.0081H9.21455C4.685 22.0074 1 25.6924 1 30.222V30.8142" stroke="#0087DF" stroke-width="2" stroke-linecap="round"/>
<path d="M40.0008 31V27.5836C40.0008 24.6865 38.5154 22.0025 36.0273 20.4047C34.5966 19.4857 32.9398 19 31.2362 19H25.7665C23.0596 19 20.5438 20.2069 18.8643 22.311C17.6458 23.8376 17.002 25.6608 17.002 27.5836V31" stroke="#0087DF" stroke-width="2" stroke-linecap="round"/>
<path d="M42.3223 22.0189C42.4616 22.0116 42.6015 22.0073 42.7427 22.0073H47.785C52.3145 22.0073 55.9995 25.6923 55.9995 30.2219V30.814" stroke="#0087DF" stroke-width="2" stroke-linecap="round"/>
<path d="M51.1093 13.3026C51.1093 16.5251 48.4862 19.1482 45.2636 19.1482C42.0416 19.1482 39.418 16.5251 39.418 13.3026C39.418 10.0801 42.041 7.45752 45.2636 7.45752C48.4863 7.45752 51.1093 10.0801 51.1093 13.3026Z" stroke="#0087DF" stroke-width="2"/>
<path d="M36.111 8.61117C36.111 12.8072 32.6953 16.2223 28.4998 16.2223C24.3038 16.2223 20.8887 12.8067 20.8887 8.61117C20.8887 4.41512 24.3038 1 28.4998 1C32.6959 1 36.111 4.41512 36.111 8.61117Z" stroke="#0087DF" stroke-width="2"/>
</svg>
