<svg width="378" height="187" viewBox="0 0 378 187" fill="none" xmlns="http://www.w3.org/2000/svg">
<path d="M148.977 122.344C148.977 134.115 139.4 143.694 127.63 143.694C115.859 143.694 106.28 134.115 106.28 122.344C106.28 110.574 115.861 100.997 127.63 100.997C139.398 100.997 148.977 110.574 148.977 122.344Z" stroke="#0087DF" stroke-width="5"/>
<path d="M139.061 152.801C138.188 152.718 137.305 152.673 136.411 152.673H118.844C103.064 152.671 90.2256 165.509 90.2256 181.29V183.353" stroke="#0087DF" stroke-width="5" stroke-linecap="round"/>
<path d="M226.097 184V172.098C226.097 162.005 220.922 152.654 212.253 147.087C207.269 143.886 201.497 142.194 195.562 142.194H176.506C167.076 142.194 158.311 146.398 152.46 153.729C148.215 159.047 145.972 165.399 145.972 172.098V184" stroke="#0087DF" stroke-width="5" stroke-linecap="round"/>
<path d="M234.187 152.711C234.672 152.686 235.159 152.671 235.651 152.671H253.218C268.998 152.671 281.836 165.509 281.836 181.289V183.352" stroke="#0087DF" stroke-width="5" stroke-linecap="round"/>
<path d="M265.788 122.344C265.788 134.115 256.209 143.694 244.438 143.694C232.67 143.694 223.089 134.115 223.089 122.344C223.089 110.574 232.668 100.997 244.438 100.997C256.209 100.997 265.788 110.574 265.788 122.344Z" stroke="#0087DF" stroke-width="5"/>
<path d="M213.531 106C213.531 121.162 201.19 133.5 186.03 133.5C170.869 133.5 158.53 121.16 158.53 106C158.53 90.8383 170.869 78.5 186.03 78.5C201.192 78.5 213.531 90.8383 213.531 106Z" stroke="#0087DF" stroke-width="5"/>
<path d="M64.2793 38.1538L87.8029 65.8466" stroke="#0087DF" stroke-width="3" stroke-linecap="round"/>
<path d="M318.598 38.1499L294.926 65.716" stroke="#0087DF" stroke-width="3" stroke-linecap="round"/>
<path d="M133.969 46.2443L127.5 26.5" stroke="#0087DF" stroke-width="3" stroke-linecap="round"/>
<path d="M241.24 47.3462L245.5 26.5" stroke="#0087DF" stroke-width="3" stroke-linecap="round"/>
<path d="M184.565 2L184.785 38.3346" stroke="#0087DF" stroke-width="3" stroke-linecap="round"/>
<path d="M57.4166 108.866L36 98.5" stroke="#0087DF" stroke-width="3" stroke-linecap="round"/>
<path d="M323 105.167L346.5 97" stroke="#0087DF" stroke-width="3" stroke-linecap="round"/>
<path d="M2 161L38.3329 161.415" stroke="#0087DF" stroke-width="3" stroke-linecap="round"/>
<path d="M376.282 161L340.051 163.754" stroke="#0087DF" stroke-width="3" stroke-linecap="round"/>
</svg>
