<svg width="47" height="47" viewBox="0 0 47 47" fill="none" xmlns="http://www.w3.org/2000/svg">
<path d="M45.9986 34.6911V41.4655C46.0012 42.0943 45.8721 42.7168 45.6196 43.293C45.3672 43.8693 44.997 44.3865 44.5326 44.8117C44.0683 45.2368 43.5201 45.5605 42.9232 45.762C42.3263 45.9634 41.6937 46.0383 41.0662 45.9817C34.1038 45.2266 27.416 42.8523 21.54 39.0493C16.0732 35.5823 11.4383 30.9566 7.96451 25.5007C4.14069 19.6097 1.76104 12.9027 1.01836 5.92289C0.961824 5.29845 1.03618 4.6691 1.23671 4.07491C1.43723 3.48072 1.75952 2.93471 2.18307 2.47165C2.60661 2.00858 3.12213 1.63861 3.6968 1.38528C4.27146 1.13194 4.89269 1.00081 5.52091 1.00022H12.3087C13.4067 0.989433 14.4712 1.3775 15.3038 2.09209C16.1364 2.80667 16.6802 3.79902 16.8339 4.88416C17.1203 7.05209 17.6517 9.18072 18.4177 11.2294C18.7221 12.0377 18.788 12.916 18.6075 13.7605C18.4271 14.605 18.0078 15.3801 17.3995 15.994L14.526 18.8618C17.7469 24.5151 22.437 29.1959 28.1015 32.4105L30.975 29.5427C31.5902 28.9355 32.3669 28.5171 33.213 28.337C34.0591 28.157 34.9392 28.2227 35.7491 28.5265C37.8019 29.291 39.9347 29.8213 42.107 30.1072C43.206 30.2619 44.2098 30.8144 44.9273 31.6596C45.6449 32.5048 46.0261 33.5837 45.9986 34.6911Z" stroke="#0087DF" stroke-width="2" stroke-linecap="round" stroke-linejoin="round"/>
</svg>
