<svg width="47" height="48" viewBox="0 0 47 48" fill="none" xmlns="http://www.w3.org/2000/svg">
<path d="M45.9318 22.9318H43.7955V20.7955C43.7955 15.4128 41.6572 10.2505 37.8511 6.4444C34.0449 2.63826 28.8827 0.5 23.5 0.5C19.719 0.50807 16.0169 1.58169 12.8182 3.59773L5.7575 0.585454C5.52823 0.48941 5.27264 0.476332 5.03476 0.548475C4.79689 0.620618 4.59162 0.773464 4.45432 0.980682L0.181591 7.38977C0.0444477 7.59448 -0.0177093 7.8403 0.00565148 8.08559C0.0290123 8.33088 0.136454 8.56055 0.309773 8.73568L4.72136 13.1366C3.7193 15.5656 3.20394 18.1678 3.20455 20.7955V22.9318H1.06818C0.784882 22.9318 0.513186 23.0444 0.312863 23.2447C0.11254 23.445 0 23.7167 0 24V46.4318C0 46.7151 0.11254 46.9868 0.312863 47.1871C0.513186 47.3875 0.784882 47.5 1.06818 47.5H45.9318C46.2151 47.5 46.4868 47.3875 46.6871 47.1871C46.8875 46.9868 47 46.7151 47 46.4318V24C47 23.7167 46.8875 23.445 46.6871 23.2447C46.4868 23.0444 46.2151 22.9318 45.9318 22.9318ZM2.44614 7.83841L5.73614 2.90341L10.7352 5.03977C8.67746 6.71093 6.96187 8.76384 5.68273 11.0857L2.44614 7.83841ZM5.34091 20.7955C5.34091 15.9794 7.25409 11.3605 10.6596 7.95504C14.0651 4.54955 18.6839 2.63636 23.5 2.63636C28.3161 2.63636 32.9349 4.54955 36.3404 7.95504C39.7459 11.3605 41.6591 15.9794 41.6591 20.7955V22.9318H5.34091V20.7955ZM2.13636 25.0682H44.8636V28.2727H2.13636V25.0682ZM21.3636 45.3636V40.0227H25.6364V45.3636H21.3636ZM27.7727 45.3636V38.9545C27.7727 38.6712 27.6602 38.3996 27.4599 38.1992C27.2595 37.9989 26.9878 37.8864 26.7045 37.8864H20.2955C20.0122 37.8864 19.7405 37.9989 19.5401 38.1992C19.3398 38.3996 19.2273 38.6712 19.2273 38.9545V45.3636H2.13636V30.4091H44.8636V45.3636H27.7727Z" fill="#0087DF"/>
<path d="M9.61435 37.8864H5.34162C5.05832 37.8864 4.78662 37.9989 4.5863 38.1992C4.38598 38.3995 4.27344 38.6712 4.27344 38.9545C4.27344 39.2378 4.38598 39.5095 4.5863 39.7099C4.78662 39.9102 5.05832 40.0227 5.34162 40.0227H9.61435C9.89765 40.0227 10.1693 39.9102 10.3697 39.7099C10.57 39.5095 10.6825 39.2378 10.6825 38.9545C10.6825 38.6712 10.57 38.3995 10.3697 38.1992C10.1693 37.9989 9.89765 37.8864 9.61435 37.8864Z" fill="#0087DF"/>
<path d="M17.0909 37.8864H12.8182C12.5349 37.8864 12.2632 37.9989 12.0629 38.1992C11.8625 38.3995 11.75 38.6712 11.75 38.9545C11.75 39.2378 11.8625 39.5095 12.0629 39.7099C12.2632 39.9102 12.5349 40.0227 12.8182 40.0227H17.0909C17.3742 40.0227 17.6459 39.9102 17.8462 39.7099C18.0466 39.5095 18.1591 39.2378 18.1591 38.9545C18.1591 38.6712 18.0466 38.3995 17.8462 38.1992C17.6459 37.9989 17.3742 37.8864 17.0909 37.8864Z" fill="#0087DF"/>
<path d="M9.61435 33.6136H5.34162C5.05832 33.6136 4.78662 33.7262 4.5863 33.9265C4.38598 34.1268 4.27344 34.3985 4.27344 34.6818C4.27344 34.9651 4.38598 35.2368 4.5863 35.4371C4.78662 35.6375 5.05832 35.75 5.34162 35.75H9.61435C9.89765 35.75 10.1693 35.6375 10.3697 35.4371C10.57 35.2368 10.6825 34.9651 10.6825 34.6818C10.6825 34.3985 10.57 34.1268 10.3697 33.9265C10.1693 33.7262 9.89765 33.6136 9.61435 33.6136Z" fill="#0087DF"/>
<path d="M17.0909 33.6136H12.8182C12.5349 33.6136 12.2632 33.7262 12.0629 33.9265C11.8625 34.1268 11.75 34.3985 11.75 34.6818C11.75 34.9651 11.8625 35.2368 12.0629 35.4371C12.2632 35.6375 12.5349 35.75 12.8182 35.75H17.0909C17.3742 35.75 17.6459 35.6375 17.8462 35.4371C18.0466 35.2368 18.1591 34.9651 18.1591 34.6818C18.1591 34.3985 18.0466 34.1268 17.8462 33.9265C17.6459 33.7262 17.3742 33.6136 17.0909 33.6136Z" fill="#0087DF"/>
<path d="M41.6593 37.8864H37.3865C37.1032 37.8864 36.8315 37.9989 36.6312 38.1992C36.4309 38.3995 36.3184 38.6712 36.3184 38.9545C36.3184 39.2378 36.4309 39.5095 36.6312 39.7099C36.8315 39.9102 37.1032 40.0227 37.3865 40.0227H41.6593C41.9426 40.0227 42.2143 39.9102 42.4146 39.7099C42.6149 39.5095 42.7275 39.2378 42.7275 38.9545C42.7275 38.6712 42.6149 38.3995 42.4146 38.1992C42.2143 37.9989 41.9426 37.8864 41.6593 37.8864Z" fill="#0087DF"/>
<path d="M34.1827 37.8864H29.91C29.6267 37.8864 29.355 37.9989 29.1547 38.1992C28.9543 38.3995 28.8418 38.6712 28.8418 38.9545C28.8418 39.2378 28.9543 39.5095 29.1547 39.7099C29.355 39.9102 29.6267 40.0227 29.91 40.0227H34.1827C34.466 40.0227 34.7377 39.9102 34.938 39.7099C35.1383 39.5095 35.2509 39.2378 35.2509 38.9545C35.2509 38.6712 35.1383 38.3995 34.938 38.1992C34.7377 37.9989 34.466 37.8864 34.1827 37.8864Z" fill="#0087DF"/>
<path d="M41.6593 33.6136H37.3865C37.1032 33.6136 36.8315 33.7262 36.6312 33.9265C36.4309 34.1268 36.3184 34.3985 36.3184 34.6818C36.3184 34.9651 36.4309 35.2368 36.6312 35.4371C36.8315 35.6375 37.1032 35.75 37.3865 35.75H41.6593C41.9426 35.75 42.2143 35.6375 42.4146 35.4371C42.6149 35.2368 42.7275 34.9651 42.7275 34.6818C42.7275 34.3985 42.6149 34.1268 42.4146 33.9265C42.2143 33.7262 41.9426 33.6136 41.6593 33.6136Z" fill="#0087DF"/>
<path d="M34.1827 33.6136H29.91C29.6267 33.6136 29.355 33.7262 29.1547 33.9265C28.9543 34.1268 28.8418 34.3985 28.8418 34.6818C28.8418 34.9651 28.9543 35.2368 29.1547 35.4371C29.355 35.6375 29.6267 35.75 29.91 35.75H34.1827C34.466 35.75 34.7377 35.6375 34.938 35.4371C35.1383 35.2368 35.2509 34.9651 35.2509 34.6818C35.2509 34.3985 35.1383 34.1268 34.938 33.9265C34.7377 33.7262 34.466 33.6136 34.1827 33.6136Z" fill="#0087DF"/>
</svg>
