<svg width="28" height="22" viewBox="0 0 28 22" fill="none" xmlns="http://www.w3.org/2000/svg">
<path d="M8.25688 0.00799561C3.84088 3.17599 0.480875 8.552 0.480875 14.408C0.480875 19.112 3.26488 21.704 6.43288 21.704C9.31288 21.704 11.5209 19.4 11.5209 16.616C11.5209 13.736 9.60088 11.72 6.91288 11.72C6.43288 11.72 5.76088 11.816 5.66488 11.816C5.95288 8.744 8.73688 4.904 11.8089 2.888L8.25688 0.00799561ZM23.6169 0.00799561C19.2009 3.17599 15.8409 8.552 15.8409 14.408C15.8409 19.112 18.6249 21.704 21.7929 21.704C24.6729 21.704 26.9769 19.4 26.9769 16.616C26.9769 13.736 24.9609 11.72 22.2729 11.72C21.7929 11.72 21.1209 11.816 21.0249 11.816C21.4089 8.744 24.0969 4.904 27.1689 2.888L23.6169 0.00799561Z" fill="#52C4DA"/>
</svg>
