<svg width="39" height="38" viewBox="0 0 39 38" fill="none" xmlns="http://www.w3.org/2000/svg">
<path d="M38.1209 26.5222C37.6923 25.9432 37.1073 25.5084 36.4406 25.2726L35.9691 25.0369C35.9234 25.0369 30.8518 22.4506 29.886 22.0893C29.171 21.8223 27.696 21.303 26.5859 22.9775C26.0915 23.7638 24.5937 25.5478 23.9015 26.3571C23.8405 26.4279 23.7949 26.4591 23.7949 26.4673H23.7954C23.6395 26.4416 23.4899 26.3856 23.3541 26.3023C23.2019 26.2239 22.9818 26.1296 22.723 26.0117V26.0112C20.4683 25.0698 18.3833 23.7407 16.5567 22.081C14.7326 20.366 13.1669 18.379 11.911 16.1859L11.8044 16.0603C11.8823 15.9633 11.9661 15.8711 12.0552 15.7851C12.3592 15.4786 12.6864 15.0695 12.9983 14.6847L13.439 14.1501C13.8071 13.6999 14.1142 13.2004 14.3518 12.6648L14.4659 12.4213V12.4208C14.8732 11.5901 14.8472 10.6027 14.3974 9.7956C14.2606 9.52036 13.3558 7.28004 12.6944 5.64567L11.7285 3.24858C10.9149 1.25994 9.86575 1.00827 8.89248 1.00055L8.76306 1H7.02182C5.80988 1.02029 4.66102 1.56144 3.85109 2.49359L3.69144 2.6663H3.69091C1.60113 4.78702 0.44917 7.70458 0.505383 10.7311C0.505383 15.0225 3.16694 19.1024 4.30722 20.6665L4.43663 20.8628C6.97612 24.5571 12.3368 31.2463 19.7431 34.5003C21.4095 35.2323 23.1126 35.8727 24.8449 36.4182C26.0536 36.807 27.3128 37.0027 28.5783 37C29.3426 36.9989 30.1053 36.9358 30.8595 36.8114C32.6767 36.5361 36.7293 34.5239 37.7025 31.8121C38.3337 30.0044 38.6912 27.5443 38.1131 26.5535L38.1209 26.5222ZM35.566 30.9709C35.0415 32.4485 32.0607 34.2174 30.5555 34.4532C28.881 34.7416 27.1652 34.6341 25.5369 34.139C23.8778 33.6126 22.2459 32.9986 20.6478 32.2996C13.7591 29.2735 8.70973 22.9617 6.31485 19.4636C6.23104 19.3381 6.17058 19.2515 6.12497 19.1966C5.36439 18.1357 2.78669 14.3783 2.78669 10.6998C2.74161 8.27482 3.6788 5.94131 5.3718 4.26189L5.55426 4.06561C5.93985 3.61217 6.49093 3.34406 7.07486 3.32652H8.70204H8.96034C9.20379 3.32652 9.34806 3.32652 9.6753 4.11277C9.91875 4.70217 10.2762 5.57449 10.6486 6.47098C11.6446 8.93938 12.2604 10.4641 12.4126 10.7784C12.5648 11.0926 12.5341 11.1792 12.4885 11.2735L12.3591 11.5252H12.3596C12.2127 11.8848 12.0127 12.2193 11.7661 12.5154L11.3025 13.0894C11.0644 13.4091 10.8103 13.7161 10.5419 14.0089C10.072 14.3823 9.75377 14.924 9.64981 15.527C9.54586 16.1307 9.66307 16.7525 9.97919 17.2712C11.3561 19.6777 13.0762 21.8554 15.0815 23.7322C17.0874 25.5678 19.3777 27.0422 21.8563 28.0943L22.3808 28.3301C22.89 28.6684 23.4999 28.8043 24.0982 28.7133C24.6964 28.6223 25.2422 28.3103 25.6352 27.835C26.0759 27.324 27.8554 25.2015 28.5019 24.219C28.5629 24.1247 28.6085 24.0775 28.6159 24.0616V24.0622C28.7978 24.0951 28.9766 24.1477 29.1479 24.2195C29.8321 24.4712 33.8774 26.4911 35.0177 27.0651L35.512 27.3168C35.7475 27.427 36.0217 27.5684 36.1814 27.6627V27.6622C36.1898 28.7966 35.9803 29.9211 35.5656 30.9711L35.566 30.9709Z" fill="white" stroke="white" stroke-width="0.5"/>
</svg>
