<svg width="23" height="22" viewBox="0 0 23 22" fill="none" xmlns="http://www.w3.org/2000/svg">
<path d="M1.77998 21.6H3.58003C3.88544 21.5991 4.17607 21.4682 4.37919 21.2401H13.408C13.9362 21.2402 14.4542 21.0948 14.9052 20.82L21.6517 16.7129C22.2376 16.3564 22.4623 15.6168 22.1736 14.9945C21.8849 14.3724 21.175 14.0662 20.5245 14.2835C13.0193 16.7858 13.8598 16.5601 13.3136 16.5601C13.7499 15.3497 12.6588 14.0401 11.2951 14.0401H9.41157C8.74741 14.0394 8.1033 13.8134 7.58425 13.399C6.9374 12.883 6.13496 12.6014 5.30764 12.6002H4.59345C4.44143 12.1702 4.03567 11.8821 3.57976 11.8801H1.77971C1.1832 11.8801 0.699707 12.3636 0.699707 12.9601V20.5201C0.699707 21.1166 1.1832 21.6001 1.77971 21.6001L1.77998 21.6ZM7.13485 13.9613C7.78169 14.4774 8.58429 14.759 9.41191 14.7602H11.2951C12.2502 14.7602 13.0794 15.7945 12.5083 16.5602H10.3209C9.61002 16.5595 8.915 16.7701 8.32393 17.165L8.06011 17.3407C7.89467 17.451 7.85008 17.6746 7.96037 17.84C8.07066 18.0054 8.29425 18.05 8.45967 17.9397C8.98957 17.5192 9.6444 17.2872 10.3209 17.2803C13.7438 17.2803 13.7146 17.3126 14.0901 17.188L20.754 14.9664C20.9657 14.8956 21.199 14.9428 21.3667 15.09C21.5344 15.2372 21.6112 15.4624 21.5684 15.6813C21.5362 15.8548 21.4313 16.0062 21.2805 16.0975L14.5313 20.205C14.1929 20.4109 13.8043 20.52 13.408 20.52H4.66003V13.3199C5.47801 13.3199 6.25488 13.2569 7.13508 13.961L7.13485 13.9613ZM1.41972 12.9601C1.41972 12.7612 1.58094 12.6002 1.77967 12.6002H3.57972C3.7786 12.6002 3.93967 12.7614 3.93967 12.9601V20.5201C3.93967 20.719 3.77845 20.8801 3.57972 20.8801H1.77967C1.58079 20.8801 1.41972 20.7188 1.41972 20.5201V12.9601Z" fill="#014494"/>
<path d="M14.3803 1.45291L14.2432 1.3176C12.4524 -0.433924 9.58998 -0.433924 7.79911 1.3176C6.94375 2.157 6.46191 3.30507 6.46191 4.50368C6.46191 5.7021 6.94375 6.85021 7.79911 7.68976L14.1283 13.9364C14.2683 14.0737 14.4923 14.0737 14.6323 13.9364L20.9626 7.69053C21.8185 6.85145 22.3007 5.70322 22.3007 4.50445C22.3007 3.30588 21.8184 2.15761 20.9626 1.31838C19.3138 -0.310226 16.4717 -0.609424 14.38 1.45262L14.3803 1.45291ZM20.4573 7.17691L14.3803 13.1759L8.30342 7.17806C7.58487 6.47383 7.17987 5.51016 7.17987 4.50398C7.17987 3.49781 7.58487 2.53414 8.30342 1.8299C9.81372 0.350919 12.2292 0.350919 13.7393 1.8299L14.1285 2.21517C14.2687 2.35363 14.494 2.35363 14.6343 2.21517L15.0245 1.8299C16.5348 0.350919 18.9503 0.350919 20.4604 1.8299C21.1786 2.53445 21.583 3.49843 21.5824 4.5046C21.5818 5.51077 21.1764 6.47429 20.4574 7.17806L20.4573 7.17691Z" fill="#014494"/>
<path d="M20.0348 3.7054C19.8942 3.56482 19.6664 3.56482 19.5256 3.7054L19.0602 4.1708L18.5948 3.7054C18.4535 3.56904 18.229 3.57085 18.0902 3.70977C17.9513 3.84869 17.9494 4.07318 18.0859 4.21436L18.5513 4.67976L17.6203 5.61076L17.1549 5.14536C17.0136 5.009 16.7891 5.01081 16.6503 5.14973C16.5114 5.28865 16.5094 5.51314 16.6459 5.65432L17.1113 6.11972L16.6459 6.58512C16.543 6.68803 16.5123 6.84292 16.5679 6.97747C16.6236 7.11202 16.7549 7.19971 16.9004 7.19971C17.0984 7.19971 17.1473 7.10177 17.6205 6.62881L18.0859 7.09422C18.1763 7.18778 18.3101 7.2253 18.436 7.19246C18.5618 7.15946 18.6602 7.06122 18.6931 6.93541C18.7261 6.8096 18.6885 6.67566 18.5948 6.58526L18.1294 6.11985L19.0604 5.18885L19.5258 5.65426C19.6162 5.74782 19.75 5.78534 19.876 5.75249C20.0018 5.7195 20.1002 5.62126 20.133 5.49545C20.166 5.36964 20.1285 5.2357 20.0348 5.1453L19.5694 4.67989L20.0348 4.21449C20.1754 4.07392 20.1754 3.8461 20.0348 3.70538L20.0348 3.7054Z" fill="#014494"/>
</svg>
