<svg width="23" height="24" viewBox="0 0 23 24" fill="none" xmlns="http://www.w3.org/2000/svg">
<path d="M17.9075 7.60734L9.29968 16.2095L5.09218 12.002C4.98224 11.8921 4.81172 11.8921 4.70159 12.002C4.59166 12.1119 4.59166 12.2825 4.70159 12.3926L9.10153 16.7925C9.15659 16.8476 9.22804 16.875 9.29397 16.875C9.35989 16.875 9.43706 16.8476 9.48641 16.7925L18.2866 7.99237C18.3965 7.88243 18.3965 7.71191 18.2866 7.60178C18.1768 7.49184 18.0118 7.49737 17.9074 7.6073L17.9075 7.60734Z" fill="#014494" stroke="#014494" stroke-width="0.4"/>
<path d="M11.4998 0.924937C5.28492 0.924937 0.224609 5.98525 0.224609 12.2001C0.224609 18.4149 5.28492 23.4753 11.4998 23.4753C17.7146 23.4753 22.7749 18.4149 22.7749 12.2001C22.7749 5.98525 17.7146 0.924937 11.4998 0.924937ZM11.4998 22.9251C5.58711 22.9251 0.774767 18.1128 0.774767 12.2001C0.774767 6.28744 5.58711 1.47509 11.4998 1.47509C17.4124 1.47509 22.2248 6.28744 22.2248 12.2001C22.2248 18.1128 17.4124 22.9251 11.4998 22.9251Z" fill="#014494" stroke="#014494" stroke-width="0.4"/>
</svg>
