<svg width="45" height="47" viewBox="0 0 45 47" fill="none" xmlns="http://www.w3.org/2000/svg">
<path d="M35.475 28.7836C35.1795 28.3761 34.7762 28.0701 34.3166 27.9042L33.9915 27.7383C33.9601 27.7383 30.4638 25.918 29.798 25.6637C29.3051 25.4758 28.2882 25.1103 27.5229 26.2888C27.1821 26.8422 26.1495 28.0978 25.6723 28.6675C25.6303 28.7172 25.5988 28.7392 25.5988 28.745H25.5992C25.4917 28.7269 25.3886 28.6875 25.295 28.6289C25.19 28.5737 25.0383 28.5073 24.8599 28.4244V28.424C23.3056 27.7614 21.8682 26.826 20.6089 25.6579C19.3514 24.4508 18.2721 23.0524 17.4062 21.5088L17.3327 21.4204C17.3865 21.3521 17.4442 21.2873 17.5057 21.2267C17.7152 21.011 17.9408 20.7231 18.1558 20.4522L18.4596 20.076C18.7134 19.7592 18.9251 19.4076 19.0889 19.0306L19.1675 18.8593V18.8589C19.4483 18.2743 19.4304 17.5793 19.1204 17.0113C19.026 16.8175 18.4022 15.2408 17.9463 14.0905L17.2804 12.4034C16.7195 11.0037 15.9963 10.8266 15.3253 10.8212L15.2361 10.8208H14.0357C13.2002 10.8351 12.4082 11.216 11.8498 11.872L11.7398 11.9936H11.7394C10.2987 13.4862 9.50459 15.5396 9.54335 17.6696C9.54335 20.69 11.3782 23.5615 12.1643 24.6624L12.2535 24.8005C14.0042 27.4006 17.6998 32.1086 22.8056 34.3988C23.9544 34.9139 25.1285 35.3646 26.3227 35.7486C27.156 36.0222 28.024 36.16 28.8964 36.158C29.4233 36.1573 29.9491 36.1129 30.4691 36.0253C31.7218 35.8316 34.5156 34.4153 35.1866 32.5067C35.6217 31.2344 35.8681 29.503 35.4696 28.8056L35.475 28.7836ZM33.7137 31.9147C33.3521 32.9547 31.2972 34.1996 30.2595 34.3656C29.1052 34.5685 27.9223 34.4929 26.7998 34.1444C25.656 33.774 24.531 33.3418 23.4292 32.8498C18.6803 30.72 15.1993 26.2777 13.5483 23.8157C13.4905 23.7274 13.4489 23.6664 13.4174 23.6278C12.8931 22.8811 11.116 20.2366 11.116 17.6477C11.085 15.9409 11.7311 14.2986 12.8982 13.1166L13.024 12.9784C13.2898 12.6593 13.6697 12.4706 14.0723 12.4582H15.194H15.3721C15.5399 12.4582 15.6394 12.4582 15.865 13.0116C16.0328 13.4264 16.2792 14.0404 16.5359 14.6713C17.2226 16.4086 17.6471 17.4818 17.752 17.703C17.857 17.9241 17.8358 17.985 17.8043 18.0514L17.7151 18.2285H17.7155C17.6142 18.4817 17.4763 18.7171 17.3063 18.9255L16.9867 19.3295C16.8226 19.5545 16.6474 19.7706 16.4624 19.9766C16.1385 20.2394 15.9191 20.6207 15.8474 21.0451C15.7757 21.47 15.8565 21.9076 16.0745 22.2727C17.0237 23.9664 18.2095 25.4991 19.5919 26.82C20.9748 28.1119 22.5537 29.1496 24.2624 29.8901L24.624 30.056C24.975 30.2941 25.3955 30.3898 25.8079 30.3258C26.2203 30.2617 26.5966 30.0422 26.8675 29.7076C27.1714 29.3479 28.3981 27.8541 28.8438 27.1626C28.8858 27.0962 28.9173 27.0631 28.9224 27.0519V27.0522C29.0478 27.0754 29.171 27.1124 29.2891 27.163C29.7608 27.3401 32.5496 28.7618 33.3357 29.1657L33.6765 29.3429C33.8388 29.4204 34.0278 29.52 34.1379 29.5863V29.586C34.1437 30.3844 33.9993 31.1759 33.7134 31.9148L33.7137 31.9147Z" fill="white" stroke="white"/>
<path d="M7.05316 7.62906C3.61168 11.1468 1.40907 15.7977 0.808687 20.8143C0.208296 25.8305 1.246 30.9134 3.75069 35.2236L0.883664 44.9766C0.800297 45.271 0.876717 45.5898 1.08257 45.8067C1.28551 46.0251 1.5868 46.1061 1.86359 46.017L11.299 43.0351C15.4615 45.638 20.323 46.7142 25.1253 46.0956C29.9281 45.477 34.4018 43.1987 37.849 39.6161C40.549 36.8318 42.4949 33.3372 43.4858 29.4933C44.4767 25.6494 44.4767 21.5957 43.4858 17.7513C42.4949 13.9075 40.549 10.4128 37.849 7.62849C33.7348 3.37941 28.2077 1 22.451 1C16.6943 1 11.167 3.37941 7.05305 7.62849L7.05316 7.62906ZM36.7278 38.4322C33.4845 41.8029 29.2639 43.9293 24.7407 44.4706C20.2174 45.012 15.653 43.9381 11.7765 41.4193C11.6536 41.3391 11.5121 41.297 11.3677 41.2978C11.2401 41.2986 11.1143 41.331 11.0006 41.3919L2.82333 43.9809L5.30789 35.5222C5.45121 35.2624 5.45121 34.9414 5.30789 34.6813C2.88661 30.6842 1.84741 25.9274 2.36626 21.2145C2.88475 16.502 4.92944 12.1233 8.15441 8.81856C11.9736 4.88057 17.1013 2.67552 22.4404 2.67552C27.7803 2.67552 32.9082 4.88047 36.7273 8.81856C39.2272 11.3967 41.0291 14.6327 41.9465 18.1923C42.8643 21.7517 42.8643 25.5049 41.9465 29.0639C41.0291 32.6233 39.2272 35.8591 36.7273 38.4372L36.7278 38.4322Z" fill="white" stroke="white"/>
</svg>
